M48
; DRILL file {KiCad (5.1.12)-1} date 12/10/21 16:35:34
; FORMAT={-:-/ absolute / metric / decimal}
; #@! TF.CreationDate,2021-12-10T16:35:34+08:00
; #@! TF.GenerationSoftware,Kicad,Pcbnew,(5.1.12)-1
; #@! TF.FileFunction,Plated,1,2,PTH
FMAT,2
METRIC
T1C0.400
T2C0.550
T3C0.800
T4C0.850
T5C1.000
%
G90
G05
T1
X9.22Y22.911
X9.22Y3.378
X10.846Y24.028
X11.684Y4.115
X13.208Y11.405
X15.215Y17.628
X15.519Y14.224
X15.57Y12.852
X18.771Y22.885
X27.559Y24.968
X27.584Y30.861
X27.661Y18.161
X28.677Y9.652
X28.702Y10.77
X28.753Y11.836
X32.639Y2.565
T3
X23.851Y20.041
X23.851Y15.161
T5
X3.277Y21.819
X3.277Y19.279
X3.277Y16.739
X3.277Y14.199
X3.277Y11.659
X3.277Y9.119
X3.277Y6.579
X3.277Y4.039
X36.474Y21.819
X36.474Y19.279
X36.474Y16.739
X36.474Y14.199
X36.474Y11.659
X36.474Y9.119
X36.474Y6.579
X36.474Y4.039
T2
G00X16.166Y37.668
M15
G01X16.166Y38.318
M16
G05
G00X23.916Y37.668
M15
G01X23.916Y38.318
M16
G05
T4
G00X16.316Y33.918
M15
G01X16.316Y34.468
M16
G05
G00X23.766Y33.918
M15
G01X23.766Y34.468
M16
G05
T0
M30
