%TF.GenerationSoftware,KiCad,Pcbnew,(5.1.12)-1*%
%TF.CreationDate,2021-12-10T16:35:34+08:00*%
%TF.ProjectId,PDIUSBD12_Module,50444955-5342-4443-9132-5f4d6f64756c,rev?*%
%TF.SameCoordinates,Original*%
%TF.FileFunction,Copper,L1,Top*%
%TF.FilePolarity,Positive*%
%FSLAX46Y46*%
G04 Gerber Fmt 4.6, Leading zero omitted, Abs format (unit mm)*
G04 Created by KiCad (PCBNEW (5.1.12)-1) date 2021-12-10 16:35:34*
%MOMM*%
%LPD*%
G01*
G04 APERTURE LIST*
%TA.AperFunction,SMDPad,CuDef*%
%ADD10R,2.997200X4.089400*%
%TD*%
%TA.AperFunction,SMDPad,CuDef*%
%ADD11R,1.701800X0.355600*%
%TD*%
%TA.AperFunction,ComponentPad*%
%ADD12C,1.500000*%
%TD*%
%TA.AperFunction,SMDPad,CuDef*%
%ADD13C,1.500000*%
%TD*%
%TA.AperFunction,ComponentPad*%
%ADD14O,1.150000X1.800000*%
%TD*%
%TA.AperFunction,ComponentPad*%
%ADD15O,1.450000X2.000000*%
%TD*%
%TA.AperFunction,SMDPad,CuDef*%
%ADD16R,0.450000X1.300000*%
%TD*%
%TA.AperFunction,ComponentPad*%
%ADD17O,1.700000X1.700000*%
%TD*%
%TA.AperFunction,ComponentPad*%
%ADD18R,1.700000X1.700000*%
%TD*%
%TA.AperFunction,ViaPad*%
%ADD19C,0.800000*%
%TD*%
%TA.AperFunction,Conductor*%
%ADD20C,0.400000*%
%TD*%
%TA.AperFunction,Conductor*%
%ADD21C,0.200000*%
%TD*%
%TA.AperFunction,Conductor*%
%ADD22C,0.254000*%
%TD*%
%TA.AperFunction,Conductor*%
%ADD23C,0.350000*%
%TD*%
%ADD24C,0.350000*%
%ADD25O,0.550000X1.200000*%
%ADD26O,0.850000X1.400000*%
G04 APERTURE END LIST*
D10*
%TO.P,U1,EPAD*%
%TO.N,GND*%
X14960600Y17500600D03*
D11*
%TO.P,U1,28*%
%TO.N,A0*%
X17767300Y21793200D03*
%TO.P,U1,27*%
%TO.N,+3V3*%
X17767300Y21132800D03*
%TO.P,U1,26*%
%TO.N,D+*%
X17767300Y20472400D03*
%TO.P,U1,25*%
%TO.N,D-*%
X17767300Y19812000D03*
%TO.P,U1,24*%
%TO.N,+5V*%
X17767300Y19151600D03*
%TO.P,U1,23*%
%TO.N,X2*%
X17767300Y18491200D03*
%TO.P,U1,22*%
%TO.N,X1*%
X17767300Y17830800D03*
%TO.P,U1,21*%
%TO.N,GoodLink*%
X17767300Y17170400D03*
%TO.P,U1,20*%
%TO.N,Net-(R3-Pad2)*%
X17767300Y16510000D03*
%TO.P,U1,19*%
X17767300Y15849600D03*
%TO.P,U1,18*%
X17767300Y15189200D03*
%TO.P,U1,17*%
%TO.N,N/C*%
X17767300Y14528800D03*
%TO.P,U1,16*%
%TO.N,WR*%
X17767300Y13868400D03*
%TO.P,U1,15*%
%TO.N,RD*%
X17767300Y13208000D03*
%TO.P,U1,14*%
%TO.N,INT*%
X12153900Y13208000D03*
%TO.P,U1,13*%
%TO.N,N/C*%
X12153900Y13868400D03*
%TO.P,U1,12*%
%TO.N,GND*%
X12153900Y14528800D03*
%TO.P,U1,11*%
X12153900Y15189200D03*
%TO.P,U1,10*%
X12153900Y15849600D03*
%TO.P,U1,9*%
%TO.N,D7*%
X12153900Y16510000D03*
%TO.P,U1,8*%
%TO.N,D6*%
X12153900Y17170400D03*
%TO.P,U1,7*%
%TO.N,D5*%
X12153900Y17830800D03*
%TO.P,U1,6*%
%TO.N,D4*%
X12153900Y18491200D03*
%TO.P,U1,5*%
%TO.N,GND*%
X12153900Y19151600D03*
%TO.P,U1,4*%
%TO.N,D3*%
X12153900Y19812000D03*
%TO.P,U1,3*%
%TO.N,D2*%
X12153900Y20472400D03*
%TO.P,U1,2*%
%TO.N,D1*%
X12153900Y21132800D03*
%TO.P,U1,1*%
%TO.N,D0*%
X12153900Y21793200D03*
%TD*%
%TO.P,C6,2*%
%TO.N,GND*%
%TA.AperFunction,SMDPad,CuDef*%
G36*
G01*
X15016000Y6671400D02*
X15016000Y5571400D01*
G75*
G02*
X14766000Y5321400I-250000J0D01*
G01*
X12666000Y5321400D01*
G75*
G02*
X12416000Y5571400I0J250000D01*
G01*
X12416000Y6671400D01*
G75*
G02*
X12666000Y6921400I250000J0D01*
G01*
X14766000Y6921400D01*
G75*
G02*
X15016000Y6671400I0J-250000D01*
G01*
G37*
%TD.AperFunction*%
%TO.P,C6,1*%
%TO.N,+3V3*%
%TA.AperFunction,SMDPad,CuDef*%
G36*
G01*
X18616000Y6671400D02*
X18616000Y5571400D01*
G75*
G02*
X18366000Y5321400I-250000J0D01*
G01*
X16266000Y5321400D01*
G75*
G02*
X16016000Y5571400I0J250000D01*
G01*
X16016000Y6671400D01*
G75*
G02*
X16266000Y6921400I250000J0D01*
G01*
X18366000Y6921400D01*
G75*
G02*
X18616000Y6671400I0J-250000D01*
G01*
G37*
%TD.AperFunction*%
%TD*%
D12*
%TO.P,Y1,2*%
%TO.N,X1*%
X23850600Y15160600D03*
%TO.P,Y1,1*%
%TO.N,X2*%
X23850600Y20040600D03*
%TD*%
D13*
%TO.P,TP2,1*%
%TO.N,D-*%
X22326600Y25247600D03*
%TD*%
%TO.P,TP1,1*%
%TO.N,D+*%
X18516600Y25247600D03*
%TD*%
%TO.P,R5,2*%
%TO.N,D+*%
%TA.AperFunction,SMDPad,CuDef*%
G36*
G01*
X18533100Y28275100D02*
X19008100Y28275100D01*
G75*
G02*
X19245600Y28037600I0J-237500D01*
G01*
X19245600Y27537600D01*
G75*
G02*
X19008100Y27300100I-237500J0D01*
G01*
X18533100Y27300100D01*
G75*
G02*
X18295600Y27537600I0J237500D01*
G01*
X18295600Y28037600D01*
G75*
G02*
X18533100Y28275100I237500J0D01*
G01*
G37*
%TD.AperFunction*%
%TO.P,R5,1*%
%TO.N,CONN_D+*%
%TA.AperFunction,SMDPad,CuDef*%
G36*
G01*
X18533100Y30100100D02*
X19008100Y30100100D01*
G75*
G02*
X19245600Y29862600I0J-237500D01*
G01*
X19245600Y29362600D01*
G75*
G02*
X19008100Y29125100I-237500J0D01*
G01*
X18533100Y29125100D01*
G75*
G02*
X18295600Y29362600I0J237500D01*
G01*
X18295600Y29862600D01*
G75*
G02*
X18533100Y30100100I237500J0D01*
G01*
G37*
%TD.AperFunction*%
%TD*%
%TO.P,R4,2*%
%TO.N,D-*%
%TA.AperFunction,SMDPad,CuDef*%
G36*
G01*
X20438100Y28275100D02*
X20913100Y28275100D01*
G75*
G02*
X21150600Y28037600I0J-237500D01*
G01*
X21150600Y27537600D01*
G75*
G02*
X20913100Y27300100I-237500J0D01*
G01*
X20438100Y27300100D01*
G75*
G02*
X20200600Y27537600I0J237500D01*
G01*
X20200600Y28037600D01*
G75*
G02*
X20438100Y28275100I237500J0D01*
G01*
G37*
%TD.AperFunction*%
%TO.P,R4,1*%
%TO.N,CONN_D-*%
%TA.AperFunction,SMDPad,CuDef*%
G36*
G01*
X20438100Y30100100D02*
X20913100Y30100100D01*
G75*
G02*
X21150600Y29862600I0J-237500D01*
G01*
X21150600Y29362600D01*
G75*
G02*
X20913100Y29125100I-237500J0D01*
G01*
X20438100Y29125100D01*
G75*
G02*
X20200600Y29362600I0J237500D01*
G01*
X20200600Y29862600D01*
G75*
G02*
X20438100Y30100100I237500J0D01*
G01*
G37*
%TD.AperFunction*%
%TD*%
%TO.P,R3,1*%
%TO.N,+5V*%
%TA.AperFunction,SMDPad,CuDef*%
G36*
G01*
X25553500Y10295900D02*
X25553500Y9820900D01*
G75*
G02*
X25316000Y9583400I-237500J0D01*
G01*
X24816000Y9583400D01*
G75*
G02*
X24578500Y9820900I0J237500D01*
G01*
X24578500Y10295900D01*
G75*
G02*
X24816000Y10533400I237500J0D01*
G01*
X25316000Y10533400D01*
G75*
G02*
X25553500Y10295900I0J-237500D01*
G01*
G37*
%TD.AperFunction*%
%TO.P,R3,2*%
%TO.N,Net-(R3-Pad2)*%
%TA.AperFunction,SMDPad,CuDef*%
G36*
G01*
X23728500Y10295900D02*
X23728500Y9820900D01*
G75*
G02*
X23491000Y9583400I-237500J0D01*
G01*
X22991000Y9583400D01*
G75*
G02*
X22753500Y9820900I0J237500D01*
G01*
X22753500Y10295900D01*
G75*
G02*
X22991000Y10533400I237500J0D01*
G01*
X23491000Y10533400D01*
G75*
G02*
X23728500Y10295900I0J-237500D01*
G01*
G37*
%TD.AperFunction*%
%TD*%
%TO.P,R2,2*%
%TO.N,+5V*%
%TA.AperFunction,SMDPad,CuDef*%
G36*
G01*
X22818100Y29078100D02*
X22343100Y29078100D01*
G75*
G02*
X22105600Y29315600I0J237500D01*
G01*
X22105600Y29815600D01*
G75*
G02*
X22343100Y30053100I237500J0D01*
G01*
X22818100Y30053100D01*
G75*
G02*
X23055600Y29815600I0J-237500D01*
G01*
X23055600Y29315600D01*
G75*
G02*
X22818100Y29078100I-237500J0D01*
G01*
G37*
%TD.AperFunction*%
%TO.P,R2,1*%
%TO.N,Net-(D2-Pad2)*%
%TA.AperFunction,SMDPad,CuDef*%
G36*
G01*
X22818100Y27253100D02*
X22343100Y27253100D01*
G75*
G02*
X22105600Y27490600I0J237500D01*
G01*
X22105600Y27990600D01*
G75*
G02*
X22343100Y28228100I237500J0D01*
G01*
X22818100Y28228100D01*
G75*
G02*
X23055600Y27990600I0J-237500D01*
G01*
X23055600Y27490600D01*
G75*
G02*
X22818100Y27253100I-237500J0D01*
G01*
G37*
%TD.AperFunction*%
%TD*%
%TO.P,R1,2*%
%TO.N,+5V*%
%TA.AperFunction,SMDPad,CuDef*%
G36*
G01*
X16628100Y28228100D02*
X17103100Y28228100D01*
G75*
G02*
X17340600Y27990600I0J-237500D01*
G01*
X17340600Y27490600D01*
G75*
G02*
X17103100Y27253100I-237500J0D01*
G01*
X16628100Y27253100D01*
G75*
G02*
X16390600Y27490600I0J237500D01*
G01*
X16390600Y27990600D01*
G75*
G02*
X16628100Y28228100I237500J0D01*
G01*
G37*
%TD.AperFunction*%
%TO.P,R1,1*%
%TO.N,Net-(D1-Pad2)*%
%TA.AperFunction,SMDPad,CuDef*%
G36*
G01*
X16628100Y30053100D02*
X17103100Y30053100D01*
G75*
G02*
X17340600Y29815600I0J-237500D01*
G01*
X17340600Y29315600D01*
G75*
G02*
X17103100Y29078100I-237500J0D01*
G01*
X16628100Y29078100D01*
G75*
G02*
X16390600Y29315600I0J237500D01*
G01*
X16390600Y29815600D01*
G75*
G02*
X16628100Y30053100I237500J0D01*
G01*
G37*
%TD.AperFunction*%
%TD*%
D14*
%TO.P,J3,6*%
%TO.N,GND*%
X16165600Y37992600D03*
X23915600Y37992600D03*
D15*
X16315600Y34192600D03*
X23765600Y34192600D03*
D16*
%TO.P,J3,5*%
X18740600Y34142600D03*
%TO.P,J3,4*%
%TO.N,N/C*%
X19390600Y34142600D03*
%TO.P,J3,3*%
%TO.N,CONN_D+*%
X20040600Y34142600D03*
%TO.P,J3,2*%
%TO.N,CONN_D-*%
X20690600Y34142600D03*
%TO.P,J3,1*%
%TO.N,+5V*%
X21340600Y34142600D03*
%TD*%
D17*
%TO.P,J2,8*%
%TO.N,D7*%
X3276600Y4038600D03*
%TO.P,J2,7*%
%TO.N,D6*%
X3276600Y6578600D03*
%TO.P,J2,6*%
%TO.N,D5*%
X3276600Y9118600D03*
%TO.P,J2,5*%
%TO.N,D4*%
X3276600Y11658600D03*
%TO.P,J2,4*%
%TO.N,D3*%
X3276600Y14198600D03*
%TO.P,J2,3*%
%TO.N,D2*%
X3276600Y16738600D03*
%TO.P,J2,2*%
%TO.N,D1*%
X3276600Y19278600D03*
D18*
%TO.P,J2,1*%
%TO.N,D0*%
X3276600Y21818600D03*
%TD*%
%TO.P,J1,1*%
%TO.N,WR*%
X36474400Y21818600D03*
D17*
%TO.P,J1,2*%
%TO.N,RD*%
X36474400Y19278600D03*
%TO.P,J1,3*%
%TO.N,A0*%
X36474400Y16738600D03*
%TO.P,J1,4*%
%TO.N,INT*%
X36474400Y14198600D03*
%TO.P,J1,5*%
%TO.N,N/C*%
X36474400Y11658600D03*
%TO.P,J1,6*%
%TO.N,+3V3*%
X36474400Y9118600D03*
%TO.P,J1,7*%
%TO.N,GND*%
X36474400Y6578600D03*
%TO.P,J1,8*%
%TO.N,+5V*%
X36474400Y4038600D03*
%TD*%
%TO.P,D2,2*%
%TO.N,Net-(D2-Pad2)*%
%TA.AperFunction,SMDPad,CuDef*%
G36*
G01*
X24248100Y28312600D02*
X24723100Y28312600D01*
G75*
G02*
X24960600Y28075100I0J-237500D01*
G01*
X24960600Y27500100D01*
G75*
G02*
X24723100Y27262600I-237500J0D01*
G01*
X24248100Y27262600D01*
G75*
G02*
X24010600Y27500100I0J237500D01*
G01*
X24010600Y28075100D01*
G75*
G02*
X24248100Y28312600I237500J0D01*
G01*
G37*
%TD.AperFunction*%
%TO.P,D2,1*%
%TO.N,GoodLink*%
%TA.AperFunction,SMDPad,CuDef*%
G36*
G01*
X24248100Y30062600D02*
X24723100Y30062600D01*
G75*
G02*
X24960600Y29825100I0J-237500D01*
G01*
X24960600Y29250100D01*
G75*
G02*
X24723100Y29012600I-237500J0D01*
G01*
X24248100Y29012600D01*
G75*
G02*
X24010600Y29250100I0J237500D01*
G01*
X24010600Y29825100D01*
G75*
G02*
X24248100Y30062600I237500J0D01*
G01*
G37*
%TD.AperFunction*%
%TD*%
%TO.P,D1,2*%
%TO.N,Net-(D1-Pad2)*%
%TA.AperFunction,SMDPad,CuDef*%
G36*
G01*
X15198100Y29012600D02*
X14723100Y29012600D01*
G75*
G02*
X14485600Y29250100I0J237500D01*
G01*
X14485600Y29825100D01*
G75*
G02*
X14723100Y30062600I237500J0D01*
G01*
X15198100Y30062600D01*
G75*
G02*
X15435600Y29825100I0J-237500D01*
G01*
X15435600Y29250100D01*
G75*
G02*
X15198100Y29012600I-237500J0D01*
G01*
G37*
%TD.AperFunction*%
%TO.P,D1,1*%
%TO.N,GND*%
%TA.AperFunction,SMDPad,CuDef*%
G36*
G01*
X15198100Y27262600D02*
X14723100Y27262600D01*
G75*
G02*
X14485600Y27500100I0J237500D01*
G01*
X14485600Y28075100D01*
G75*
G02*
X14723100Y28312600I237500J0D01*
G01*
X15198100Y28312600D01*
G75*
G02*
X15435600Y28075100I0J-237500D01*
G01*
X15435600Y27500100D01*
G75*
G02*
X15198100Y27262600I-237500J0D01*
G01*
G37*
%TD.AperFunction*%
%TD*%
%TO.P,C5,2*%
%TO.N,GND*%
%TA.AperFunction,SMDPad,CuDef*%
G36*
G01*
X22382000Y6671400D02*
X22382000Y5571400D01*
G75*
G02*
X22132000Y5321400I-250000J0D01*
G01*
X20032000Y5321400D01*
G75*
G02*
X19782000Y5571400I0J250000D01*
G01*
X19782000Y6671400D01*
G75*
G02*
X20032000Y6921400I250000J0D01*
G01*
X22132000Y6921400D01*
G75*
G02*
X22382000Y6671400I0J-250000D01*
G01*
G37*
%TD.AperFunction*%
%TO.P,C5,1*%
%TO.N,+5V*%
%TA.AperFunction,SMDPad,CuDef*%
G36*
G01*
X25982000Y6671400D02*
X25982000Y5571400D01*
G75*
G02*
X25732000Y5321400I-250000J0D01*
G01*
X23632000Y5321400D01*
G75*
G02*
X23382000Y5571400I0J250000D01*
G01*
X23382000Y6671400D01*
G75*
G02*
X23632000Y6921400I250000J0D01*
G01*
X25732000Y6921400D01*
G75*
G02*
X25982000Y6671400I0J-250000D01*
G01*
G37*
%TD.AperFunction*%
%TD*%
%TO.P,C4,1*%
%TO.N,+3V3*%
%TA.AperFunction,SMDPad,CuDef*%
G36*
G01*
X15083500Y9820900D02*
X15083500Y10295900D01*
G75*
G02*
X15321000Y10533400I237500J0D01*
G01*
X15921000Y10533400D01*
G75*
G02*
X16158500Y10295900I0J-237500D01*
G01*
X16158500Y9820900D01*
G75*
G02*
X15921000Y9583400I-237500J0D01*
G01*
X15321000Y9583400D01*
G75*
G02*
X15083500Y9820900I0J237500D01*
G01*
G37*
%TD.AperFunction*%
%TO.P,C4,2*%
%TO.N,GND*%
%TA.AperFunction,SMDPad,CuDef*%
G36*
G01*
X16808500Y9820900D02*
X16808500Y10295900D01*
G75*
G02*
X17046000Y10533400I237500J0D01*
G01*
X17646000Y10533400D01*
G75*
G02*
X17883500Y10295900I0J-237500D01*
G01*
X17883500Y9820900D01*
G75*
G02*
X17646000Y9583400I-237500J0D01*
G01*
X17046000Y9583400D01*
G75*
G02*
X16808500Y9820900I0J237500D01*
G01*
G37*
%TD.AperFunction*%
%TD*%
%TO.P,C3,2*%
%TO.N,X1*%
%TA.AperFunction,SMDPad,CuDef*%
G36*
G01*
X27423100Y15498100D02*
X27898100Y15498100D01*
G75*
G02*
X28135600Y15260600I0J-237500D01*
G01*
X28135600Y14660600D01*
G75*
G02*
X27898100Y14423100I-237500J0D01*
G01*
X27423100Y14423100D01*
G75*
G02*
X27185600Y14660600I0J237500D01*
G01*
X27185600Y15260600D01*
G75*
G02*
X27423100Y15498100I237500J0D01*
G01*
G37*
%TD.AperFunction*%
%TO.P,C3,1*%
%TO.N,GND*%
%TA.AperFunction,SMDPad,CuDef*%
G36*
G01*
X27423100Y17223100D02*
X27898100Y17223100D01*
G75*
G02*
X28135600Y16985600I0J-237500D01*
G01*
X28135600Y16385600D01*
G75*
G02*
X27898100Y16148100I-237500J0D01*
G01*
X27423100Y16148100D01*
G75*
G02*
X27185600Y16385600I0J237500D01*
G01*
X27185600Y16985600D01*
G75*
G02*
X27423100Y17223100I237500J0D01*
G01*
G37*
%TD.AperFunction*%
%TD*%
%TO.P,C2,2*%
%TO.N,X2*%
%TA.AperFunction,SMDPad,CuDef*%
G36*
G01*
X27898100Y20773100D02*
X27423100Y20773100D01*
G75*
G02*
X27185600Y21010600I0J237500D01*
G01*
X27185600Y21610600D01*
G75*
G02*
X27423100Y21848100I237500J0D01*
G01*
X27898100Y21848100D01*
G75*
G02*
X28135600Y21610600I0J-237500D01*
G01*
X28135600Y21010600D01*
G75*
G02*
X27898100Y20773100I-237500J0D01*
G01*
G37*
%TD.AperFunction*%
%TO.P,C2,1*%
%TO.N,GND*%
%TA.AperFunction,SMDPad,CuDef*%
G36*
G01*
X27898100Y19048100D02*
X27423100Y19048100D01*
G75*
G02*
X27185600Y19285600I0J237500D01*
G01*
X27185600Y19885600D01*
G75*
G02*
X27423100Y20123100I237500J0D01*
G01*
X27898100Y20123100D01*
G75*
G02*
X28135600Y19885600I0J-237500D01*
G01*
X28135600Y19285600D01*
G75*
G02*
X27898100Y19048100I-237500J0D01*
G01*
G37*
%TD.AperFunction*%
%TD*%
%TO.P,C1,1*%
%TO.N,+5V*%
%TA.AperFunction,SMDPad,CuDef*%
G36*
G01*
X18920000Y9820900D02*
X18920000Y10295900D01*
G75*
G02*
X19157500Y10533400I237500J0D01*
G01*
X19757500Y10533400D01*
G75*
G02*
X19995000Y10295900I0J-237500D01*
G01*
X19995000Y9820900D01*
G75*
G02*
X19757500Y9583400I-237500J0D01*
G01*
X19157500Y9583400D01*
G75*
G02*
X18920000Y9820900I0J237500D01*
G01*
G37*
%TD.AperFunction*%
%TO.P,C1,2*%
%TO.N,GND*%
%TA.AperFunction,SMDPad,CuDef*%
G36*
G01*
X20645000Y9820900D02*
X20645000Y10295900D01*
G75*
G02*
X20882500Y10533400I237500J0D01*
G01*
X21482500Y10533400D01*
G75*
G02*
X21720000Y10295900I0J-237500D01*
G01*
X21720000Y9820900D01*
G75*
G02*
X21482500Y9583400I-237500J0D01*
G01*
X20882500Y9583400D01*
G75*
G02*
X20645000Y9820900I0J237500D01*
G01*
G37*
%TD.AperFunction*%
%TD*%
D19*
%TO.N,GND*%
X27660600Y18161000D03*
X15214600Y17627600D03*
%TO.N,+3V3*%
X9220200Y3378200D03*
X9220200Y22910800D03*
X32639000Y2565400D03*
%TO.N,+5V*%
X11684000Y4114800D03*
X10845800Y24028400D03*
X27584400Y30861000D03*
X27559000Y24968200D03*
%TO.N,INT*%
X13208000Y11404600D03*
X28676600Y9652000D03*
%TO.N,A0*%
X18770600Y22885400D03*
%TO.N,RD*%
X15570200Y12852400D03*
X28702000Y10769600D03*
%TO.N,WR*%
X15519400Y14224000D03*
X28752800Y11836400D03*
%TD*%
D20*
%TO.N,GND*%
X12153900Y14528800D02*
X12153900Y15849600D01*
X21082000Y6121400D02*
X21082000Y5359400D01*
X21082000Y5359400D02*
X20066000Y4343400D01*
X15494000Y4343400D02*
X13716000Y6121400D01*
X20066000Y4343400D02*
X15494000Y4343400D01*
X17346000Y10058400D02*
X17346000Y9857400D01*
X17346000Y9857400D02*
X21082000Y6121400D01*
X13309600Y19151600D02*
X14960600Y17500600D01*
X12153900Y19151600D02*
X13309600Y19151600D01*
X13309600Y15849600D02*
X14960600Y17500600D01*
X12153900Y15849600D02*
X13309600Y15849600D01*
X27660600Y19585600D02*
X27660600Y18161000D01*
X21182500Y10058400D02*
X21182500Y10948500D01*
X21182500Y10948500D02*
X20599400Y11531600D01*
X18819200Y11531600D02*
X17346000Y10058400D01*
X20599400Y11531600D02*
X18819200Y11531600D01*
X23915600Y34342600D02*
X23765600Y34192600D01*
X23915600Y37992600D02*
X23915600Y34342600D01*
X16365600Y34142600D02*
X16315600Y34192600D01*
X18740600Y34142600D02*
X16365600Y34142600D01*
X16315600Y37842600D02*
X16165600Y37992600D01*
X16315600Y34192600D02*
X16315600Y37842600D01*
X14960600Y27787600D02*
X13385800Y27787600D01*
X13385800Y27787600D02*
X12801600Y28371800D01*
X12801600Y30678600D02*
X16315600Y34192600D01*
X12801600Y28371800D02*
X12801600Y30678600D01*
X17346000Y10058400D02*
X17346000Y10467000D01*
X17346000Y10467000D02*
X16256000Y11557000D01*
X16256000Y11557000D02*
X14909800Y11557000D01*
X14909800Y11557000D02*
X14071600Y12395200D01*
X14071600Y16611600D02*
X14960600Y17500600D01*
X14071600Y12395200D02*
X14071600Y16611600D01*
X27660600Y18161000D02*
X27660600Y16685600D01*
X36474400Y6578600D02*
X37084000Y6578600D01*
X37084000Y6578600D02*
X38404800Y7899400D01*
X38404800Y23503400D02*
X37431100Y24477100D01*
X38404800Y7899400D02*
X38404800Y23503400D01*
X37431100Y24477100D02*
X23915600Y37992600D01*
%TO.N,+3V3*%
X15621000Y7816400D02*
X17316000Y6121400D01*
X15621000Y10058400D02*
X15621000Y7816400D01*
X15621000Y10058400D02*
X13843000Y10058400D01*
X13843000Y10058400D02*
X11607800Y7823200D01*
X11607800Y7823200D02*
X11607800Y5765800D01*
X11607800Y5765800D02*
X9220200Y3378200D01*
X9220200Y3378200D02*
X9220200Y3378200D01*
X12674600Y22910800D02*
X9220200Y22910800D01*
X13766800Y22910800D02*
X12674600Y22910800D01*
X15544800Y21132800D02*
X13766800Y22910800D01*
X17767300Y21132800D02*
X15544800Y21132800D01*
X9220200Y3378200D02*
X10668000Y3378200D01*
X10668000Y3378200D02*
X10744200Y3378200D01*
X10668000Y3378200D02*
X10769600Y3378200D01*
X10769600Y3378200D02*
X11582400Y2565400D01*
X11582400Y2565400D02*
X32639000Y2565400D01*
X32639000Y2565400D02*
X32639000Y2565400D01*
%TO.N,X2*%
X22301200Y18491200D02*
X23850600Y20040600D01*
X17767300Y18491200D02*
X22301200Y18491200D01*
X25120600Y21310600D02*
X27660600Y21310600D01*
X23850600Y20040600D02*
X25120600Y21310600D01*
%TO.N,X1*%
X21180400Y17830800D02*
X23850600Y15160600D01*
X17767300Y17830800D02*
X21180400Y17830800D01*
X24050600Y14960600D02*
X27660600Y14960600D01*
X23850600Y15160600D02*
X24050600Y14960600D01*
%TO.N,Net-(D1-Pad2)*%
X16837600Y29537600D02*
X16865600Y29565600D01*
X14960600Y29537600D02*
X16837600Y29537600D01*
%TO.N,Net-(D2-Pad2)*%
X24438600Y27740600D02*
X24485600Y27787600D01*
X22580600Y27740600D02*
X24438600Y27740600D01*
%TO.N,GoodLink*%
X28586400Y25436800D02*
X24485600Y29537600D01*
X29006800Y25016400D02*
X28586400Y25436800D01*
X29006800Y14046200D02*
X29006800Y25016400D01*
X28041600Y13081000D02*
X29006800Y14046200D01*
X23469600Y13081000D02*
X28041600Y13081000D01*
X22123400Y14427200D02*
X23469600Y13081000D01*
X22123400Y15214600D02*
X22123400Y14427200D01*
X20167600Y17170400D02*
X22123400Y15214600D01*
X17767300Y17170400D02*
X20167600Y17170400D01*
%TO.N,+5V*%
X25066000Y9597400D02*
X25066000Y10058400D01*
X24257000Y8788400D02*
X25066000Y9597400D01*
X19457500Y10031900D02*
X20701000Y8788400D01*
X19457500Y10058400D02*
X19457500Y10031900D01*
X20701000Y8788400D02*
X24257000Y8788400D01*
X25066000Y6505400D02*
X25066000Y10058400D01*
X24682000Y6121400D02*
X25066000Y6505400D01*
X22580600Y29565600D02*
X22580600Y29692600D01*
X26764800Y4038600D02*
X24682000Y6121400D01*
X36474400Y4038600D02*
X27584400Y4038600D01*
X22580600Y29565600D02*
X22580600Y32902600D01*
X24682000Y6121400D02*
X24485600Y6121400D01*
X24682000Y6121400D02*
X24511000Y6121400D01*
X24511000Y6121400D02*
X21767800Y3378200D01*
X10845800Y24028400D02*
X14376400Y24028400D01*
X16865600Y26517600D02*
X16865600Y27740600D01*
X14376400Y24028400D02*
X16865600Y26517600D01*
X27584400Y4038600D02*
X26764800Y4038600D01*
X24622200Y30861000D02*
X22445700Y33037500D01*
X27584400Y30861000D02*
X24622200Y30861000D01*
X22445700Y33037500D02*
X21340600Y34142600D01*
X22580600Y32902600D02*
X22445700Y33037500D01*
X17767300Y19151600D02*
X20396200Y19151600D01*
X20396200Y19151600D02*
X26212800Y24968200D01*
X26212800Y24968200D02*
X27559000Y24968200D01*
X27559000Y24968200D02*
X27559000Y24968200D01*
X12471400Y3378200D02*
X12420600Y3378200D01*
X21767800Y3378200D02*
X12471400Y3378200D01*
X12420600Y3378200D02*
X11684000Y4114800D01*
%TO.N,INT*%
X12153900Y13208000D02*
X12153900Y12458700D01*
X12153900Y12458700D02*
X13208000Y11404600D01*
X13208000Y11404600D02*
X13208000Y11404600D01*
X28676600Y9652000D02*
X30251400Y9652000D01*
X34798000Y14198600D02*
X36474400Y14198600D01*
X30251400Y9652000D02*
X34798000Y14198600D01*
%TO.N,A0*%
X17767300Y21793200D02*
X17767300Y21882100D01*
X17767300Y21882100D02*
X18770600Y22885400D01*
X18770600Y22885400D02*
X18770600Y22885400D01*
%TO.N,RD*%
X17767300Y13208000D02*
X15925800Y13208000D01*
X15925800Y13208000D02*
X15570200Y12852400D01*
X15570200Y12852400D02*
X15570200Y12852400D01*
X30022800Y10769600D02*
X28702000Y10769600D01*
X31318200Y12065000D02*
X31318200Y17322800D01*
X31318200Y12065000D02*
X30022800Y10769600D01*
X33274000Y19278600D02*
X36474400Y19278600D01*
X31318200Y17322800D02*
X33274000Y19278600D01*
%TO.N,WR*%
X17767300Y13868400D02*
X15875000Y13868400D01*
X15875000Y13868400D02*
X15519400Y14224000D01*
X15519400Y14224000D02*
X15519400Y14224000D01*
X28752800Y11836400D02*
X28752800Y12598400D01*
X30429200Y14274800D02*
X30429200Y19100800D01*
X28752800Y12598400D02*
X30429200Y14274800D01*
X33147000Y21818600D02*
X36474400Y21818600D01*
X30429200Y19100800D02*
X33147000Y21818600D01*
%TO.N,D7*%
X10617200Y16510000D02*
X9753600Y15646400D01*
X9753600Y15646400D02*
X9753600Y5816600D01*
X12153900Y16510000D02*
X10617200Y16510000D01*
X9753600Y5816600D02*
X7975600Y4038600D01*
X7975600Y4038600D02*
X3276600Y4038600D01*
%TO.N,D6*%
X12153900Y17170400D02*
X10134600Y17170400D01*
X10134600Y17170400D02*
X8915400Y15951200D01*
X8915400Y15951200D02*
X8915400Y8153400D01*
X7340600Y6578600D02*
X3276600Y6578600D01*
X8915400Y8153400D02*
X7340600Y6578600D01*
%TO.N,D5*%
X12153900Y17830800D02*
X9652000Y17830800D01*
X9652000Y17830800D02*
X8102600Y16281400D01*
X8102600Y16281400D02*
X8102600Y10820400D01*
X6400800Y9118600D02*
X3276600Y9118600D01*
X8102600Y10820400D02*
X6400800Y9118600D01*
%TO.N,D4*%
X12153900Y18491200D02*
X12141200Y18491200D01*
X12153900Y18491200D02*
X9321800Y18491200D01*
X9321800Y18491200D02*
X6591300Y15760700D01*
X6591300Y15760700D02*
X6591300Y14744700D01*
X6591300Y14744700D02*
X3505200Y11658600D01*
X3505200Y11658600D02*
X3276600Y11658600D01*
%TO.N,D3*%
X8890000Y19812000D02*
X3276600Y14198600D01*
X12153900Y19812000D02*
X8890000Y19812000D01*
%TO.N,D2*%
X12153900Y20472400D02*
X7137400Y20472400D01*
X3403600Y16738600D02*
X3276600Y16738600D01*
X7137400Y20472400D02*
X3403600Y16738600D01*
%TO.N,D1*%
X12153900Y21132800D02*
X6578600Y21132800D01*
X4724400Y19278600D02*
X3276600Y19278600D01*
X6578600Y21132800D02*
X4724400Y19278600D01*
%TO.N,D0*%
X3302000Y21793200D02*
X3276600Y21818600D01*
X12153900Y21793200D02*
X3302000Y21793200D01*
%TO.N,Net-(R3-Pad2)*%
X17767300Y16510000D02*
X17767300Y15189200D01*
X19710400Y15849600D02*
X17767300Y15849600D01*
X20472400Y15087600D02*
X20472400Y14147800D01*
X20472400Y15087600D02*
X19710400Y15849600D01*
X23241000Y11379200D02*
X23241000Y11099800D01*
X20472400Y14147800D02*
X23241000Y11379200D01*
X23241000Y10058400D02*
X23241000Y11099800D01*
D21*
%TO.N,D+*%
X19148851Y20367200D02*
X19541000Y20367200D01*
X19043651Y20472400D02*
X19148851Y20367200D01*
X17767300Y20472400D02*
X19043651Y20472400D01*
X20225600Y21051800D02*
X19541000Y20367200D01*
X18770600Y27787600D02*
X20225600Y26332600D01*
X18574600Y25305600D02*
X18516600Y25247600D01*
X20225600Y25305600D02*
X18574600Y25305600D01*
X20225600Y26332600D02*
X20225600Y25305600D01*
X20225600Y25305600D02*
X20225600Y21051800D01*
%TO.N,D-*%
X19043651Y19812000D02*
X17767300Y19812000D01*
X19148851Y19917200D02*
X19043651Y19812000D01*
X19727400Y19917200D02*
X19148851Y19917200D01*
X20675600Y20865400D02*
X19727400Y19917200D01*
X20675600Y25247600D02*
X22326600Y25247600D01*
X20675600Y27787600D02*
X20675600Y25247600D01*
X20675600Y25247600D02*
X20675600Y20865400D01*
%TO.N,CONN_D+*%
X20040600Y33167599D02*
X20040600Y34142600D01*
X20140600Y33067599D02*
X20040600Y33167599D01*
X20225600Y31729400D02*
X20140600Y31814400D01*
X20225600Y31067600D02*
X20225600Y31729400D01*
X20140600Y31814400D02*
X20140600Y33067599D01*
X18770600Y29612600D02*
X20225600Y31067600D01*
%TO.N,CONN_D-*%
X20590600Y32000800D02*
X20590600Y33067599D01*
X20675600Y31915800D02*
X20590600Y32000800D01*
X20675600Y29612600D02*
X20675600Y31915800D01*
X20690600Y33167599D02*
X20690600Y34142600D01*
X20590600Y33067599D02*
X20690600Y33167599D01*
%TD*%
D22*
%TO.N,GND*%
X38963607Y684976D02*
X660000Y660423D01*
X660000Y22668600D01*
X1788528Y22668600D01*
X1788528Y20968600D01*
X1800788Y20844118D01*
X1837098Y20724420D01*
X1896063Y20614106D01*
X1975415Y20517415D01*
X2072106Y20438063D01*
X2182420Y20379098D01*
X2254980Y20357087D01*
X2123125Y20225232D01*
X1960610Y19982011D01*
X1848668Y19711758D01*
X1791600Y19424860D01*
X1791600Y19132340D01*
X1848668Y18845442D01*
X1960610Y18575189D01*
X2123125Y18331968D01*
X2329968Y18125125D01*
X2504360Y18008600D01*
X2329968Y17892075D01*
X2123125Y17685232D01*
X1960610Y17442011D01*
X1848668Y17171758D01*
X1791600Y16884860D01*
X1791600Y16592340D01*
X1848668Y16305442D01*
X1960610Y16035189D01*
X2123125Y15791968D01*
X2329968Y15585125D01*
X2504360Y15468600D01*
X2329968Y15352075D01*
X2123125Y15145232D01*
X1960610Y14902011D01*
X1848668Y14631758D01*
X1791600Y14344860D01*
X1791600Y14052340D01*
X1848668Y13765442D01*
X1960610Y13495189D01*
X2123125Y13251968D01*
X2329968Y13045125D01*
X2504360Y12928600D01*
X2329968Y12812075D01*
X2123125Y12605232D01*
X1960610Y12362011D01*
X1848668Y12091758D01*
X1791600Y11804860D01*
X1791600Y11512340D01*
X1848668Y11225442D01*
X1960610Y10955189D01*
X2123125Y10711968D01*
X2329968Y10505125D01*
X2504360Y10388600D01*
X2329968Y10272075D01*
X2123125Y10065232D01*
X1960610Y9822011D01*
X1848668Y9551758D01*
X1791600Y9264860D01*
X1791600Y8972340D01*
X1848668Y8685442D01*
X1960610Y8415189D01*
X2123125Y8171968D01*
X2329968Y7965125D01*
X2504360Y7848600D01*
X2329968Y7732075D01*
X2123125Y7525232D01*
X1960610Y7282011D01*
X1848668Y7011758D01*
X1791600Y6724860D01*
X1791600Y6432340D01*
X1848668Y6145442D01*
X1960610Y5875189D01*
X2123125Y5631968D01*
X2329968Y5425125D01*
X2504360Y5308600D01*
X2329968Y5192075D01*
X2123125Y4985232D01*
X1960610Y4742011D01*
X1848668Y4471758D01*
X1791600Y4184860D01*
X1791600Y3892340D01*
X1848668Y3605442D01*
X1960610Y3335189D01*
X2123125Y3091968D01*
X2329968Y2885125D01*
X2573189Y2722610D01*
X2843442Y2610668D01*
X3130340Y2553600D01*
X3422860Y2553600D01*
X3709758Y2610668D01*
X3980011Y2722610D01*
X4223232Y2885125D01*
X4430075Y3091968D01*
X4504665Y3203600D01*
X7934582Y3203600D01*
X7975600Y3199560D01*
X8016618Y3203600D01*
X8016619Y3203600D01*
X8139289Y3215682D01*
X8193952Y3232264D01*
X8224974Y3076302D01*
X8302995Y2887944D01*
X8416263Y2718426D01*
X8560426Y2574263D01*
X8729944Y2460995D01*
X8918302Y2382974D01*
X9118261Y2343200D01*
X9322139Y2343200D01*
X9522098Y2382974D01*
X9710456Y2460995D01*
X9833485Y2543200D01*
X10423732Y2543200D01*
X10962963Y2003968D01*
X10989109Y1972109D01*
X11116254Y1867764D01*
X11261313Y1790228D01*
X11418711Y1742482D01*
X11541381Y1730400D01*
X11541382Y1730400D01*
X11582400Y1726360D01*
X11623418Y1730400D01*
X32025715Y1730400D01*
X32148744Y1648195D01*
X32337102Y1570174D01*
X32537061Y1530400D01*
X32740939Y1530400D01*
X32940898Y1570174D01*
X33129256Y1648195D01*
X33298774Y1761463D01*
X33442937Y1905626D01*
X33556205Y2075144D01*
X33634226Y2263502D01*
X33674000Y2463461D01*
X33674000Y2667339D01*
X33634226Y2867298D01*
X33556205Y3055656D01*
X33457352Y3203600D01*
X35246335Y3203600D01*
X35320925Y3091968D01*
X35527768Y2885125D01*
X35770989Y2722610D01*
X36041242Y2610668D01*
X36328140Y2553600D01*
X36620660Y2553600D01*
X36907558Y2610668D01*
X37177811Y2722610D01*
X37421032Y2885125D01*
X37627875Y3091968D01*
X37790390Y3335189D01*
X37902332Y3605442D01*
X37959400Y3892340D01*
X37959400Y4184860D01*
X37902332Y4471758D01*
X37790390Y4742011D01*
X37627875Y4985232D01*
X37421032Y5192075D01*
X37238866Y5313795D01*
X37355755Y5383422D01*
X37571988Y5578331D01*
X37746041Y5811680D01*
X37871225Y6074501D01*
X37915876Y6221710D01*
X37794555Y6451600D01*
X36601400Y6451600D01*
X36601400Y6431600D01*
X36347400Y6431600D01*
X36347400Y6451600D01*
X35154245Y6451600D01*
X35032924Y6221710D01*
X35077575Y6074501D01*
X35202759Y5811680D01*
X35376812Y5578331D01*
X35593045Y5383422D01*
X35709934Y5313795D01*
X35527768Y5192075D01*
X35320925Y4985232D01*
X35246335Y4873600D01*
X27110668Y4873600D01*
X26599078Y5385190D01*
X26603008Y5398146D01*
X26620072Y5571400D01*
X26620072Y6671400D01*
X26603008Y6844654D01*
X26552472Y7011250D01*
X26470405Y7164786D01*
X26359962Y7299362D01*
X26225386Y7409805D01*
X26071850Y7491872D01*
X25905254Y7542408D01*
X25901000Y7542827D01*
X25901000Y9173773D01*
X25935123Y9201777D01*
X26044012Y9334458D01*
X26124923Y9485833D01*
X26174748Y9650084D01*
X26191572Y9820900D01*
X26191572Y10295900D01*
X26174748Y10466716D01*
X26124923Y10630967D01*
X26044012Y10782342D01*
X25935123Y10915023D01*
X25802442Y11023912D01*
X25651067Y11104823D01*
X25486816Y11154648D01*
X25316000Y11171472D01*
X24816000Y11171472D01*
X24645184Y11154648D01*
X24480933Y11104823D01*
X24329558Y11023912D01*
X24196877Y10915023D01*
X24153500Y10862168D01*
X24110123Y10915023D01*
X24076000Y10943027D01*
X24076000Y11338182D01*
X24080040Y11379200D01*
X24063918Y11542888D01*
X24028818Y11658600D01*
X24016172Y11700287D01*
X23938636Y11845346D01*
X23898004Y11894856D01*
X23860439Y11940630D01*
X23860437Y11940632D01*
X23834291Y11972491D01*
X23802433Y11998636D01*
X23555069Y12246000D01*
X27802186Y12246000D01*
X27757574Y12138298D01*
X27717800Y11938339D01*
X27717800Y11734461D01*
X27757574Y11534502D01*
X27835595Y11346144D01*
X27839023Y11341014D01*
X27784795Y11259856D01*
X27706774Y11071498D01*
X27667000Y10871539D01*
X27667000Y10667661D01*
X27706774Y10467702D01*
X27784795Y10279344D01*
X27817895Y10229807D01*
X27759395Y10142256D01*
X27681374Y9953898D01*
X27641600Y9753939D01*
X27641600Y9550061D01*
X27681374Y9350102D01*
X27759395Y9161744D01*
X27872663Y8992226D01*
X28016826Y8848063D01*
X28186344Y8734795D01*
X28374702Y8656774D01*
X28574661Y8617000D01*
X28778539Y8617000D01*
X28978498Y8656774D01*
X29166856Y8734795D01*
X29289885Y8817000D01*
X30210382Y8817000D01*
X30251400Y8812960D01*
X30292418Y8817000D01*
X30292419Y8817000D01*
X30415089Y8829082D01*
X30572487Y8876828D01*
X30717546Y8954364D01*
X30844691Y9058709D01*
X30870846Y9090579D01*
X35143868Y13363600D01*
X35246335Y13363600D01*
X35320925Y13251968D01*
X35527768Y13045125D01*
X35702160Y12928600D01*
X35527768Y12812075D01*
X35320925Y12605232D01*
X35158410Y12362011D01*
X35046468Y12091758D01*
X34989400Y11804860D01*
X34989400Y11512340D01*
X35046468Y11225442D01*
X35158410Y10955189D01*
X35320925Y10711968D01*
X35527768Y10505125D01*
X35702160Y10388600D01*
X35527768Y10272075D01*
X35320925Y10065232D01*
X35158410Y9822011D01*
X35046468Y9551758D01*
X34989400Y9264860D01*
X34989400Y8972340D01*
X35046468Y8685442D01*
X35158410Y8415189D01*
X35320925Y8171968D01*
X35527768Y7965125D01*
X35709934Y7843405D01*
X35593045Y7773778D01*
X35376812Y7578869D01*
X35202759Y7345520D01*
X35077575Y7082699D01*
X35032924Y6935490D01*
X35154245Y6705600D01*
X36347400Y6705600D01*
X36347400Y6725600D01*
X36601400Y6725600D01*
X36601400Y6705600D01*
X37794555Y6705600D01*
X37915876Y6935490D01*
X37871225Y7082699D01*
X37746041Y7345520D01*
X37571988Y7578869D01*
X37355755Y7773778D01*
X37238866Y7843405D01*
X37421032Y7965125D01*
X37627875Y8171968D01*
X37790390Y8415189D01*
X37902332Y8685442D01*
X37959400Y8972340D01*
X37959400Y9264860D01*
X37902332Y9551758D01*
X37790390Y9822011D01*
X37627875Y10065232D01*
X37421032Y10272075D01*
X37246640Y10388600D01*
X37421032Y10505125D01*
X37627875Y10711968D01*
X37790390Y10955189D01*
X37902332Y11225442D01*
X37959400Y11512340D01*
X37959400Y11804860D01*
X37902332Y12091758D01*
X37790390Y12362011D01*
X37627875Y12605232D01*
X37421032Y12812075D01*
X37246640Y12928600D01*
X37421032Y13045125D01*
X37627875Y13251968D01*
X37790390Y13495189D01*
X37902332Y13765442D01*
X37959400Y14052340D01*
X37959400Y14344860D01*
X37902332Y14631758D01*
X37790390Y14902011D01*
X37627875Y15145232D01*
X37421032Y15352075D01*
X37246640Y15468600D01*
X37421032Y15585125D01*
X37627875Y15791968D01*
X37790390Y16035189D01*
X37902332Y16305442D01*
X37959400Y16592340D01*
X37959400Y16884860D01*
X37902332Y17171758D01*
X37790390Y17442011D01*
X37627875Y17685232D01*
X37421032Y17892075D01*
X37246640Y18008600D01*
X37421032Y18125125D01*
X37627875Y18331968D01*
X37790390Y18575189D01*
X37902332Y18845442D01*
X37959400Y19132340D01*
X37959400Y19424860D01*
X37902332Y19711758D01*
X37790390Y19982011D01*
X37627875Y20225232D01*
X37496020Y20357087D01*
X37568580Y20379098D01*
X37678894Y20438063D01*
X37775585Y20517415D01*
X37854937Y20614106D01*
X37913902Y20724420D01*
X37950212Y20844118D01*
X37962472Y20968600D01*
X37962472Y22668600D01*
X37950212Y22793082D01*
X37913902Y22912780D01*
X37854937Y23023094D01*
X37775585Y23119785D01*
X37678894Y23199137D01*
X37568580Y23258102D01*
X37448882Y23294412D01*
X37324400Y23306672D01*
X35624400Y23306672D01*
X35499918Y23294412D01*
X35380220Y23258102D01*
X35269906Y23199137D01*
X35173215Y23119785D01*
X35093863Y23023094D01*
X35034898Y22912780D01*
X34998588Y22793082D01*
X34986328Y22668600D01*
X34986328Y22653600D01*
X33188018Y22653600D01*
X33147000Y22657640D01*
X33105982Y22653600D01*
X33105981Y22653600D01*
X32983311Y22641518D01*
X32876351Y22609072D01*
X32825913Y22593772D01*
X32680854Y22516236D01*
X32593631Y22444654D01*
X32553709Y22411891D01*
X32527563Y22380032D01*
X29867774Y19720241D01*
X29841800Y19698925D01*
X29841800Y24975393D01*
X29845839Y25016401D01*
X29841800Y25057409D01*
X29841800Y25057419D01*
X29829718Y25180089D01*
X29781972Y25337487D01*
X29704436Y25482546D01*
X29600091Y25609691D01*
X29568221Y25635846D01*
X29205843Y25998224D01*
X29205838Y25998230D01*
X25598672Y29605395D01*
X25598672Y29825100D01*
X25581848Y29995916D01*
X25572722Y30026000D01*
X26971115Y30026000D01*
X27094144Y29943795D01*
X27282502Y29865774D01*
X27482461Y29826000D01*
X27686339Y29826000D01*
X27886298Y29865774D01*
X28074656Y29943795D01*
X28244174Y30057063D01*
X28388337Y30201226D01*
X28501605Y30370744D01*
X28579626Y30559102D01*
X28619400Y30759061D01*
X28619400Y30962939D01*
X28579626Y31162898D01*
X28501605Y31351256D01*
X28388337Y31520774D01*
X28244174Y31664937D01*
X28074656Y31778205D01*
X27886298Y31856226D01*
X27686339Y31896000D01*
X27482461Y31896000D01*
X27282502Y31856226D01*
X27094144Y31778205D01*
X26971115Y31696000D01*
X24968069Y31696000D01*
X24009193Y32654875D01*
X24102858Y32600081D01*
X24168717Y32612522D01*
X24415579Y32716243D01*
X24637463Y32866131D01*
X24825842Y33056427D01*
X24973476Y33279817D01*
X25074692Y33527717D01*
X25125600Y33790600D01*
X25125600Y34065600D01*
X23892600Y34065600D01*
X23892600Y34045600D01*
X23638600Y34045600D01*
X23638600Y34065600D01*
X23618600Y34065600D01*
X23618600Y34319600D01*
X23638600Y34319600D01*
X23638600Y35662118D01*
X23892600Y35662118D01*
X23892600Y34319600D01*
X25125600Y34319600D01*
X25125600Y34594600D01*
X25074692Y34857483D01*
X24973476Y35105383D01*
X24825842Y35328773D01*
X24637463Y35519069D01*
X24415579Y35668957D01*
X24168717Y35772678D01*
X24102858Y35785119D01*
X23892600Y35662118D01*
X23638600Y35662118D01*
X23428342Y35785119D01*
X23423496Y35784204D01*
X23344537Y35902374D01*
X23200374Y36046537D01*
X23030856Y36159805D01*
X22842498Y36237826D01*
X22642539Y36277600D01*
X22438661Y36277600D01*
X22238702Y36237826D01*
X22050344Y36159805D01*
X21880826Y36046537D01*
X21736663Y35902374D01*
X21623395Y35732856D01*
X21545374Y35544498D01*
X21522733Y35430672D01*
X21115600Y35430672D01*
X21015600Y35420823D01*
X20915600Y35430672D01*
X20465600Y35430672D01*
X20365600Y35420823D01*
X20265600Y35430672D01*
X19815600Y35430672D01*
X19715600Y35420823D01*
X19615600Y35430672D01*
X19165600Y35430672D01*
X19062135Y35420482D01*
X18997350Y35427600D01*
X18965103Y35395353D01*
X18921420Y35382102D01*
X18811106Y35323137D01*
X18714415Y35243785D01*
X18642600Y35156278D01*
X18642600Y35268850D01*
X18575600Y35335850D01*
X18575600Y35344539D01*
X18535826Y35544498D01*
X18457805Y35732856D01*
X18344537Y35902374D01*
X18200374Y36046537D01*
X18030856Y36159805D01*
X17842498Y36237826D01*
X17642539Y36277600D01*
X17438661Y36277600D01*
X17238702Y36237826D01*
X17050344Y36159805D01*
X16880826Y36046537D01*
X16736663Y35902374D01*
X16657704Y35784204D01*
X16652858Y35785119D01*
X16442600Y35662118D01*
X16442600Y34319600D01*
X17064334Y34319600D01*
X17238702Y34247374D01*
X17438661Y34207600D01*
X17642539Y34207600D01*
X17842498Y34247374D01*
X17997409Y34311541D01*
X18039350Y34269600D01*
X18527528Y34269600D01*
X18527528Y34015600D01*
X18039350Y34015600D01*
X17880600Y33856850D01*
X17877614Y33503068D01*
X17887830Y33378402D01*
X17922172Y33258125D01*
X17979318Y33146858D01*
X18057074Y33048878D01*
X18152450Y32967950D01*
X18261782Y32907184D01*
X18380868Y32868915D01*
X18483850Y32857600D01*
X18642600Y33016350D01*
X18642600Y33128922D01*
X18714415Y33041415D01*
X18811106Y32962063D01*
X18921420Y32903098D01*
X18965103Y32889847D01*
X18997350Y32857600D01*
X19062135Y32864718D01*
X19165600Y32854528D01*
X19374533Y32854528D01*
X19405601Y32796404D01*
X19405600Y31850506D01*
X19402044Y31814400D01*
X19416235Y31670315D01*
X19426592Y31636172D01*
X19458263Y31531768D01*
X19490600Y31471270D01*
X19490600Y31372047D01*
X18856726Y30738172D01*
X18533100Y30738172D01*
X18362284Y30721348D01*
X18198033Y30671523D01*
X18046658Y30590612D01*
X17913977Y30481723D01*
X17805088Y30349042D01*
X17800139Y30339783D01*
X17722223Y30434723D01*
X17589542Y30543612D01*
X17438167Y30624523D01*
X17273916Y30674348D01*
X17103100Y30691172D01*
X16628100Y30691172D01*
X16457284Y30674348D01*
X16293033Y30624523D01*
X16141658Y30543612D01*
X16008977Y30434723D01*
X15957994Y30372600D01*
X15876003Y30372600D01*
X15817223Y30444223D01*
X15684542Y30553112D01*
X15533167Y30634023D01*
X15368916Y30683848D01*
X15198100Y30700672D01*
X14723100Y30700672D01*
X14552284Y30683848D01*
X14388033Y30634023D01*
X14236658Y30553112D01*
X14103977Y30444223D01*
X13995088Y30311542D01*
X13914177Y30160167D01*
X13864352Y29995916D01*
X13847528Y29825100D01*
X13847528Y29250100D01*
X13864352Y29079284D01*
X13914177Y28915033D01*
X13995088Y28763658D01*
X14014699Y28739761D01*
X13955063Y28667094D01*
X13896098Y28556780D01*
X13859788Y28437082D01*
X13847528Y28312600D01*
X13850600Y28073350D01*
X14009350Y27914600D01*
X14833600Y27914600D01*
X14833600Y27934600D01*
X15087600Y27934600D01*
X15087600Y27914600D01*
X15107600Y27914600D01*
X15107600Y27660600D01*
X15087600Y27660600D01*
X15087600Y26786350D01*
X15246350Y26627600D01*
X15435600Y26624528D01*
X15560082Y26636788D01*
X15679780Y26673098D01*
X15790094Y26732063D01*
X15886785Y26811415D01*
X15966137Y26908106D01*
X15971177Y26917536D01*
X16008977Y26871477D01*
X16025252Y26858120D01*
X14030533Y24863400D01*
X11459085Y24863400D01*
X11336056Y24945605D01*
X11147698Y25023626D01*
X10947739Y25063400D01*
X10743861Y25063400D01*
X10543902Y25023626D01*
X10355544Y24945605D01*
X10186026Y24832337D01*
X10041863Y24688174D01*
X9928595Y24518656D01*
X9850574Y24330298D01*
X9810800Y24130339D01*
X9810800Y23926461D01*
X9846735Y23745800D01*
X9833485Y23745800D01*
X9710456Y23828005D01*
X9522098Y23906026D01*
X9322139Y23945800D01*
X9118261Y23945800D01*
X8918302Y23906026D01*
X8729944Y23828005D01*
X8560426Y23714737D01*
X8416263Y23570574D01*
X8302995Y23401056D01*
X8224974Y23212698D01*
X8185200Y23012739D01*
X8185200Y22808861D01*
X8221135Y22628200D01*
X4764672Y22628200D01*
X4764672Y22668600D01*
X4752412Y22793082D01*
X4716102Y22912780D01*
X4657137Y23023094D01*
X4577785Y23119785D01*
X4481094Y23199137D01*
X4370780Y23258102D01*
X4251082Y23294412D01*
X4126600Y23306672D01*
X2426600Y23306672D01*
X2302118Y23294412D01*
X2182420Y23258102D01*
X2072106Y23199137D01*
X1975415Y23119785D01*
X1896063Y23023094D01*
X1837098Y22912780D01*
X1800788Y22793082D01*
X1788528Y22668600D01*
X660000Y22668600D01*
X660000Y27262600D01*
X13847528Y27262600D01*
X13859788Y27138118D01*
X13896098Y27018420D01*
X13955063Y26908106D01*
X14034415Y26811415D01*
X14131106Y26732063D01*
X14241420Y26673098D01*
X14361118Y26636788D01*
X14485600Y26624528D01*
X14674850Y26627600D01*
X14833600Y26786350D01*
X14833600Y27660600D01*
X14009350Y27660600D01*
X13850600Y27501850D01*
X13847528Y27262600D01*
X660000Y27262600D01*
X660000Y34065600D01*
X14955600Y34065600D01*
X14955600Y33790600D01*
X15006508Y33527717D01*
X15107724Y33279817D01*
X15255358Y33056427D01*
X15443737Y32866131D01*
X15665621Y32716243D01*
X15912483Y32612522D01*
X15978342Y32600081D01*
X16188600Y32723082D01*
X16188600Y34065600D01*
X16442600Y34065600D01*
X16442600Y32723082D01*
X16652858Y32600081D01*
X16718717Y32612522D01*
X16965579Y32716243D01*
X17187463Y32866131D01*
X17375842Y33056427D01*
X17523476Y33279817D01*
X17624692Y33527717D01*
X17675600Y33790600D01*
X17675600Y34065600D01*
X16442600Y34065600D01*
X16188600Y34065600D01*
X14955600Y34065600D01*
X660000Y34065600D01*
X660000Y34594600D01*
X14955600Y34594600D01*
X14955600Y34319600D01*
X16188600Y34319600D01*
X16188600Y35662118D01*
X15978342Y35785119D01*
X15912483Y35772678D01*
X15665621Y35668957D01*
X15443737Y35519069D01*
X15255358Y35328773D01*
X15107724Y35105383D01*
X15006508Y34857483D01*
X14955600Y34594600D01*
X660000Y34594600D01*
X660000Y37865600D01*
X14955600Y37865600D01*
X14955600Y37540600D01*
X15003626Y37306981D01*
X15096306Y37087220D01*
X15230079Y36889763D01*
X15399803Y36722198D01*
X15598956Y36590964D01*
X15819885Y36501104D01*
X15851923Y36498965D01*
X16038600Y36624050D01*
X16038600Y37865600D01*
X16292600Y37865600D01*
X16292600Y36624050D01*
X16479277Y36498965D01*
X16511315Y36501104D01*
X16732244Y36590964D01*
X16931397Y36722198D01*
X17101121Y36889763D01*
X17234894Y37087220D01*
X17327574Y37306981D01*
X17375600Y37540600D01*
X17375600Y37865600D01*
X22705600Y37865600D01*
X22705600Y37540600D01*
X22753626Y37306981D01*
X22846306Y37087220D01*
X22980079Y36889763D01*
X23149803Y36722198D01*
X23348956Y36590964D01*
X23569885Y36501104D01*
X23601923Y36498965D01*
X23788600Y36624050D01*
X23788600Y37865600D01*
X24042600Y37865600D01*
X24042600Y36624050D01*
X24229277Y36498965D01*
X24261315Y36501104D01*
X24482244Y36590964D01*
X24681397Y36722198D01*
X24851121Y36889763D01*
X24984894Y37087220D01*
X25077574Y37306981D01*
X25125600Y37540600D01*
X25125600Y37865600D01*
X24042600Y37865600D01*
X23788600Y37865600D01*
X22705600Y37865600D01*
X17375600Y37865600D01*
X16292600Y37865600D01*
X16038600Y37865600D01*
X14955600Y37865600D01*
X660000Y37865600D01*
X660000Y38444600D01*
X14955600Y38444600D01*
X14955600Y38119600D01*
X16038600Y38119600D01*
X16038600Y39361150D01*
X16292600Y39361150D01*
X16292600Y38119600D01*
X17375600Y38119600D01*
X17375600Y38444600D01*
X22705600Y38444600D01*
X22705600Y38119600D01*
X23788600Y38119600D01*
X23788600Y39361150D01*
X24042600Y39361150D01*
X24042600Y38119600D01*
X25125600Y38119600D01*
X25125600Y38444600D01*
X25077574Y38678219D01*
X24984894Y38897980D01*
X24851121Y39095437D01*
X24681397Y39263002D01*
X24482244Y39394236D01*
X24261315Y39484096D01*
X24229277Y39486235D01*
X24042600Y39361150D01*
X23788600Y39361150D01*
X23601923Y39486235D01*
X23569885Y39484096D01*
X23348956Y39394236D01*
X23149803Y39263002D01*
X22980079Y39095437D01*
X22846306Y38897980D01*
X22753626Y38678219D01*
X22705600Y38444600D01*
X17375600Y38444600D01*
X17327574Y38678219D01*
X17234894Y38897980D01*
X17101121Y39095437D01*
X16931397Y39263002D01*
X16732244Y39394236D01*
X16511315Y39484096D01*
X16479277Y39486235D01*
X16292600Y39361150D01*
X16038600Y39361150D01*
X15851923Y39486235D01*
X15819885Y39484096D01*
X15598956Y39394236D01*
X15399803Y39263002D01*
X15230079Y39095437D01*
X15096306Y38897980D01*
X15003626Y38678219D01*
X14955600Y38444600D01*
X660000Y38444600D01*
X660000Y41986600D01*
X38938993Y41986600D01*
X38963607Y684976D01*
%TA.AperFunction,Conductor*%
D23*
G36*
X38963607Y684976D02*
G01*
X660000Y660423D01*
X660000Y22668600D01*
X1788528Y22668600D01*
X1788528Y20968600D01*
X1800788Y20844118D01*
X1837098Y20724420D01*
X1896063Y20614106D01*
X1975415Y20517415D01*
X2072106Y20438063D01*
X2182420Y20379098D01*
X2254980Y20357087D01*
X2123125Y20225232D01*
X1960610Y19982011D01*
X1848668Y19711758D01*
X1791600Y19424860D01*
X1791600Y19132340D01*
X1848668Y18845442D01*
X1960610Y18575189D01*
X2123125Y18331968D01*
X2329968Y18125125D01*
X2504360Y18008600D01*
X2329968Y17892075D01*
X2123125Y17685232D01*
X1960610Y17442011D01*
X1848668Y17171758D01*
X1791600Y16884860D01*
X1791600Y16592340D01*
X1848668Y16305442D01*
X1960610Y16035189D01*
X2123125Y15791968D01*
X2329968Y15585125D01*
X2504360Y15468600D01*
X2329968Y15352075D01*
X2123125Y15145232D01*
X1960610Y14902011D01*
X1848668Y14631758D01*
X1791600Y14344860D01*
X1791600Y14052340D01*
X1848668Y13765442D01*
X1960610Y13495189D01*
X2123125Y13251968D01*
X2329968Y13045125D01*
X2504360Y12928600D01*
X2329968Y12812075D01*
X2123125Y12605232D01*
X1960610Y12362011D01*
X1848668Y12091758D01*
X1791600Y11804860D01*
X1791600Y11512340D01*
X1848668Y11225442D01*
X1960610Y10955189D01*
X2123125Y10711968D01*
X2329968Y10505125D01*
X2504360Y10388600D01*
X2329968Y10272075D01*
X2123125Y10065232D01*
X1960610Y9822011D01*
X1848668Y9551758D01*
X1791600Y9264860D01*
X1791600Y8972340D01*
X1848668Y8685442D01*
X1960610Y8415189D01*
X2123125Y8171968D01*
X2329968Y7965125D01*
X2504360Y7848600D01*
X2329968Y7732075D01*
X2123125Y7525232D01*
X1960610Y7282011D01*
X1848668Y7011758D01*
X1791600Y6724860D01*
X1791600Y6432340D01*
X1848668Y6145442D01*
X1960610Y5875189D01*
X2123125Y5631968D01*
X2329968Y5425125D01*
X2504360Y5308600D01*
X2329968Y5192075D01*
X2123125Y4985232D01*
X1960610Y4742011D01*
X1848668Y4471758D01*
X1791600Y4184860D01*
X1791600Y3892340D01*
X1848668Y3605442D01*
X1960610Y3335189D01*
X2123125Y3091968D01*
X2329968Y2885125D01*
X2573189Y2722610D01*
X2843442Y2610668D01*
X3130340Y2553600D01*
X3422860Y2553600D01*
X3709758Y2610668D01*
X3980011Y2722610D01*
X4223232Y2885125D01*
X4430075Y3091968D01*
X4504665Y3203600D01*
X7934582Y3203600D01*
X7975600Y3199560D01*
X8016618Y3203600D01*
X8016619Y3203600D01*
X8139289Y3215682D01*
X8193952Y3232264D01*
X8224974Y3076302D01*
X8302995Y2887944D01*
X8416263Y2718426D01*
X8560426Y2574263D01*
X8729944Y2460995D01*
X8918302Y2382974D01*
X9118261Y2343200D01*
X9322139Y2343200D01*
X9522098Y2382974D01*
X9710456Y2460995D01*
X9833485Y2543200D01*
X10423732Y2543200D01*
X10962963Y2003968D01*
X10989109Y1972109D01*
X11116254Y1867764D01*
X11261313Y1790228D01*
X11418711Y1742482D01*
X11541381Y1730400D01*
X11541382Y1730400D01*
X11582400Y1726360D01*
X11623418Y1730400D01*
X32025715Y1730400D01*
X32148744Y1648195D01*
X32337102Y1570174D01*
X32537061Y1530400D01*
X32740939Y1530400D01*
X32940898Y1570174D01*
X33129256Y1648195D01*
X33298774Y1761463D01*
X33442937Y1905626D01*
X33556205Y2075144D01*
X33634226Y2263502D01*
X33674000Y2463461D01*
X33674000Y2667339D01*
X33634226Y2867298D01*
X33556205Y3055656D01*
X33457352Y3203600D01*
X35246335Y3203600D01*
X35320925Y3091968D01*
X35527768Y2885125D01*
X35770989Y2722610D01*
X36041242Y2610668D01*
X36328140Y2553600D01*
X36620660Y2553600D01*
X36907558Y2610668D01*
X37177811Y2722610D01*
X37421032Y2885125D01*
X37627875Y3091968D01*
X37790390Y3335189D01*
X37902332Y3605442D01*
X37959400Y3892340D01*
X37959400Y4184860D01*
X37902332Y4471758D01*
X37790390Y4742011D01*
X37627875Y4985232D01*
X37421032Y5192075D01*
X37238866Y5313795D01*
X37355755Y5383422D01*
X37571988Y5578331D01*
X37746041Y5811680D01*
X37871225Y6074501D01*
X37915876Y6221710D01*
X37794555Y6451600D01*
X36601400Y6451600D01*
X36601400Y6431600D01*
X36347400Y6431600D01*
X36347400Y6451600D01*
X35154245Y6451600D01*
X35032924Y6221710D01*
X35077575Y6074501D01*
X35202759Y5811680D01*
X35376812Y5578331D01*
X35593045Y5383422D01*
X35709934Y5313795D01*
X35527768Y5192075D01*
X35320925Y4985232D01*
X35246335Y4873600D01*
X27110668Y4873600D01*
X26599078Y5385190D01*
X26603008Y5398146D01*
X26620072Y5571400D01*
X26620072Y6671400D01*
X26603008Y6844654D01*
X26552472Y7011250D01*
X26470405Y7164786D01*
X26359962Y7299362D01*
X26225386Y7409805D01*
X26071850Y7491872D01*
X25905254Y7542408D01*
X25901000Y7542827D01*
X25901000Y9173773D01*
X25935123Y9201777D01*
X26044012Y9334458D01*
X26124923Y9485833D01*
X26174748Y9650084D01*
X26191572Y9820900D01*
X26191572Y10295900D01*
X26174748Y10466716D01*
X26124923Y10630967D01*
X26044012Y10782342D01*
X25935123Y10915023D01*
X25802442Y11023912D01*
X25651067Y11104823D01*
X25486816Y11154648D01*
X25316000Y11171472D01*
X24816000Y11171472D01*
X24645184Y11154648D01*
X24480933Y11104823D01*
X24329558Y11023912D01*
X24196877Y10915023D01*
X24153500Y10862168D01*
X24110123Y10915023D01*
X24076000Y10943027D01*
X24076000Y11338182D01*
X24080040Y11379200D01*
X24063918Y11542888D01*
X24028818Y11658600D01*
X24016172Y11700287D01*
X23938636Y11845346D01*
X23898004Y11894856D01*
X23860439Y11940630D01*
X23860437Y11940632D01*
X23834291Y11972491D01*
X23802433Y11998636D01*
X23555069Y12246000D01*
X27802186Y12246000D01*
X27757574Y12138298D01*
X27717800Y11938339D01*
X27717800Y11734461D01*
X27757574Y11534502D01*
X27835595Y11346144D01*
X27839023Y11341014D01*
X27784795Y11259856D01*
X27706774Y11071498D01*
X27667000Y10871539D01*
X27667000Y10667661D01*
X27706774Y10467702D01*
X27784795Y10279344D01*
X27817895Y10229807D01*
X27759395Y10142256D01*
X27681374Y9953898D01*
X27641600Y9753939D01*
X27641600Y9550061D01*
X27681374Y9350102D01*
X27759395Y9161744D01*
X27872663Y8992226D01*
X28016826Y8848063D01*
X28186344Y8734795D01*
X28374702Y8656774D01*
X28574661Y8617000D01*
X28778539Y8617000D01*
X28978498Y8656774D01*
X29166856Y8734795D01*
X29289885Y8817000D01*
X30210382Y8817000D01*
X30251400Y8812960D01*
X30292418Y8817000D01*
X30292419Y8817000D01*
X30415089Y8829082D01*
X30572487Y8876828D01*
X30717546Y8954364D01*
X30844691Y9058709D01*
X30870846Y9090579D01*
X35143868Y13363600D01*
X35246335Y13363600D01*
X35320925Y13251968D01*
X35527768Y13045125D01*
X35702160Y12928600D01*
X35527768Y12812075D01*
X35320925Y12605232D01*
X35158410Y12362011D01*
X35046468Y12091758D01*
X34989400Y11804860D01*
X34989400Y11512340D01*
X35046468Y11225442D01*
X35158410Y10955189D01*
X35320925Y10711968D01*
X35527768Y10505125D01*
X35702160Y10388600D01*
X35527768Y10272075D01*
X35320925Y10065232D01*
X35158410Y9822011D01*
X35046468Y9551758D01*
X34989400Y9264860D01*
X34989400Y8972340D01*
X35046468Y8685442D01*
X35158410Y8415189D01*
X35320925Y8171968D01*
X35527768Y7965125D01*
X35709934Y7843405D01*
X35593045Y7773778D01*
X35376812Y7578869D01*
X35202759Y7345520D01*
X35077575Y7082699D01*
X35032924Y6935490D01*
X35154245Y6705600D01*
X36347400Y6705600D01*
X36347400Y6725600D01*
X36601400Y6725600D01*
X36601400Y6705600D01*
X37794555Y6705600D01*
X37915876Y6935490D01*
X37871225Y7082699D01*
X37746041Y7345520D01*
X37571988Y7578869D01*
X37355755Y7773778D01*
X37238866Y7843405D01*
X37421032Y7965125D01*
X37627875Y8171968D01*
X37790390Y8415189D01*
X37902332Y8685442D01*
X37959400Y8972340D01*
X37959400Y9264860D01*
X37902332Y9551758D01*
X37790390Y9822011D01*
X37627875Y10065232D01*
X37421032Y10272075D01*
X37246640Y10388600D01*
X37421032Y10505125D01*
X37627875Y10711968D01*
X37790390Y10955189D01*
X37902332Y11225442D01*
X37959400Y11512340D01*
X37959400Y11804860D01*
X37902332Y12091758D01*
X37790390Y12362011D01*
X37627875Y12605232D01*
X37421032Y12812075D01*
X37246640Y12928600D01*
X37421032Y13045125D01*
X37627875Y13251968D01*
X37790390Y13495189D01*
X37902332Y13765442D01*
X37959400Y14052340D01*
X37959400Y14344860D01*
X37902332Y14631758D01*
X37790390Y14902011D01*
X37627875Y15145232D01*
X37421032Y15352075D01*
X37246640Y15468600D01*
X37421032Y15585125D01*
X37627875Y15791968D01*
X37790390Y16035189D01*
X37902332Y16305442D01*
X37959400Y16592340D01*
X37959400Y16884860D01*
X37902332Y17171758D01*
X37790390Y17442011D01*
X37627875Y17685232D01*
X37421032Y17892075D01*
X37246640Y18008600D01*
X37421032Y18125125D01*
X37627875Y18331968D01*
X37790390Y18575189D01*
X37902332Y18845442D01*
X37959400Y19132340D01*
X37959400Y19424860D01*
X37902332Y19711758D01*
X37790390Y19982011D01*
X37627875Y20225232D01*
X37496020Y20357087D01*
X37568580Y20379098D01*
X37678894Y20438063D01*
X37775585Y20517415D01*
X37854937Y20614106D01*
X37913902Y20724420D01*
X37950212Y20844118D01*
X37962472Y20968600D01*
X37962472Y22668600D01*
X37950212Y22793082D01*
X37913902Y22912780D01*
X37854937Y23023094D01*
X37775585Y23119785D01*
X37678894Y23199137D01*
X37568580Y23258102D01*
X37448882Y23294412D01*
X37324400Y23306672D01*
X35624400Y23306672D01*
X35499918Y23294412D01*
X35380220Y23258102D01*
X35269906Y23199137D01*
X35173215Y23119785D01*
X35093863Y23023094D01*
X35034898Y22912780D01*
X34998588Y22793082D01*
X34986328Y22668600D01*
X34986328Y22653600D01*
X33188018Y22653600D01*
X33147000Y22657640D01*
X33105982Y22653600D01*
X33105981Y22653600D01*
X32983311Y22641518D01*
X32876351Y22609072D01*
X32825913Y22593772D01*
X32680854Y22516236D01*
X32593631Y22444654D01*
X32553709Y22411891D01*
X32527563Y22380032D01*
X29867774Y19720241D01*
X29841800Y19698925D01*
X29841800Y24975393D01*
X29845839Y25016401D01*
X29841800Y25057409D01*
X29841800Y25057419D01*
X29829718Y25180089D01*
X29781972Y25337487D01*
X29704436Y25482546D01*
X29600091Y25609691D01*
X29568221Y25635846D01*
X29205843Y25998224D01*
X29205838Y25998230D01*
X25598672Y29605395D01*
X25598672Y29825100D01*
X25581848Y29995916D01*
X25572722Y30026000D01*
X26971115Y30026000D01*
X27094144Y29943795D01*
X27282502Y29865774D01*
X27482461Y29826000D01*
X27686339Y29826000D01*
X27886298Y29865774D01*
X28074656Y29943795D01*
X28244174Y30057063D01*
X28388337Y30201226D01*
X28501605Y30370744D01*
X28579626Y30559102D01*
X28619400Y30759061D01*
X28619400Y30962939D01*
X28579626Y31162898D01*
X28501605Y31351256D01*
X28388337Y31520774D01*
X28244174Y31664937D01*
X28074656Y31778205D01*
X27886298Y31856226D01*
X27686339Y31896000D01*
X27482461Y31896000D01*
X27282502Y31856226D01*
X27094144Y31778205D01*
X26971115Y31696000D01*
X24968069Y31696000D01*
X24009193Y32654875D01*
X24102858Y32600081D01*
X24168717Y32612522D01*
X24415579Y32716243D01*
X24637463Y32866131D01*
X24825842Y33056427D01*
X24973476Y33279817D01*
X25074692Y33527717D01*
X25125600Y33790600D01*
X25125600Y34065600D01*
X23892600Y34065600D01*
X23892600Y34045600D01*
X23638600Y34045600D01*
X23638600Y34065600D01*
X23618600Y34065600D01*
X23618600Y34319600D01*
X23638600Y34319600D01*
X23638600Y35662118D01*
X23892600Y35662118D01*
X23892600Y34319600D01*
X25125600Y34319600D01*
X25125600Y34594600D01*
X25074692Y34857483D01*
X24973476Y35105383D01*
X24825842Y35328773D01*
X24637463Y35519069D01*
X24415579Y35668957D01*
X24168717Y35772678D01*
X24102858Y35785119D01*
X23892600Y35662118D01*
X23638600Y35662118D01*
X23428342Y35785119D01*
X23423496Y35784204D01*
X23344537Y35902374D01*
X23200374Y36046537D01*
X23030856Y36159805D01*
X22842498Y36237826D01*
X22642539Y36277600D01*
X22438661Y36277600D01*
X22238702Y36237826D01*
X22050344Y36159805D01*
X21880826Y36046537D01*
X21736663Y35902374D01*
X21623395Y35732856D01*
X21545374Y35544498D01*
X21522733Y35430672D01*
X21115600Y35430672D01*
X21015600Y35420823D01*
X20915600Y35430672D01*
X20465600Y35430672D01*
X20365600Y35420823D01*
X20265600Y35430672D01*
X19815600Y35430672D01*
X19715600Y35420823D01*
X19615600Y35430672D01*
X19165600Y35430672D01*
X19062135Y35420482D01*
X18997350Y35427600D01*
X18965103Y35395353D01*
X18921420Y35382102D01*
X18811106Y35323137D01*
X18714415Y35243785D01*
X18642600Y35156278D01*
X18642600Y35268850D01*
X18575600Y35335850D01*
X18575600Y35344539D01*
X18535826Y35544498D01*
X18457805Y35732856D01*
X18344537Y35902374D01*
X18200374Y36046537D01*
X18030856Y36159805D01*
X17842498Y36237826D01*
X17642539Y36277600D01*
X17438661Y36277600D01*
X17238702Y36237826D01*
X17050344Y36159805D01*
X16880826Y36046537D01*
X16736663Y35902374D01*
X16657704Y35784204D01*
X16652858Y35785119D01*
X16442600Y35662118D01*
X16442600Y34319600D01*
X17064334Y34319600D01*
X17238702Y34247374D01*
X17438661Y34207600D01*
X17642539Y34207600D01*
X17842498Y34247374D01*
X17997409Y34311541D01*
X18039350Y34269600D01*
X18527528Y34269600D01*
X18527528Y34015600D01*
X18039350Y34015600D01*
X17880600Y33856850D01*
X17877614Y33503068D01*
X17887830Y33378402D01*
X17922172Y33258125D01*
X17979318Y33146858D01*
X18057074Y33048878D01*
X18152450Y32967950D01*
X18261782Y32907184D01*
X18380868Y32868915D01*
X18483850Y32857600D01*
X18642600Y33016350D01*
X18642600Y33128922D01*
X18714415Y33041415D01*
X18811106Y32962063D01*
X18921420Y32903098D01*
X18965103Y32889847D01*
X18997350Y32857600D01*
X19062135Y32864718D01*
X19165600Y32854528D01*
X19374533Y32854528D01*
X19405601Y32796404D01*
X19405600Y31850506D01*
X19402044Y31814400D01*
X19416235Y31670315D01*
X19426592Y31636172D01*
X19458263Y31531768D01*
X19490600Y31471270D01*
X19490600Y31372047D01*
X18856726Y30738172D01*
X18533100Y30738172D01*
X18362284Y30721348D01*
X18198033Y30671523D01*
X18046658Y30590612D01*
X17913977Y30481723D01*
X17805088Y30349042D01*
X17800139Y30339783D01*
X17722223Y30434723D01*
X17589542Y30543612D01*
X17438167Y30624523D01*
X17273916Y30674348D01*
X17103100Y30691172D01*
X16628100Y30691172D01*
X16457284Y30674348D01*
X16293033Y30624523D01*
X16141658Y30543612D01*
X16008977Y30434723D01*
X15957994Y30372600D01*
X15876003Y30372600D01*
X15817223Y30444223D01*
X15684542Y30553112D01*
X15533167Y30634023D01*
X15368916Y30683848D01*
X15198100Y30700672D01*
X14723100Y30700672D01*
X14552284Y30683848D01*
X14388033Y30634023D01*
X14236658Y30553112D01*
X14103977Y30444223D01*
X13995088Y30311542D01*
X13914177Y30160167D01*
X13864352Y29995916D01*
X13847528Y29825100D01*
X13847528Y29250100D01*
X13864352Y29079284D01*
X13914177Y28915033D01*
X13995088Y28763658D01*
X14014699Y28739761D01*
X13955063Y28667094D01*
X13896098Y28556780D01*
X13859788Y28437082D01*
X13847528Y28312600D01*
X13850600Y28073350D01*
X14009350Y27914600D01*
X14833600Y27914600D01*
X14833600Y27934600D01*
X15087600Y27934600D01*
X15087600Y27914600D01*
X15107600Y27914600D01*
X15107600Y27660600D01*
X15087600Y27660600D01*
X15087600Y26786350D01*
X15246350Y26627600D01*
X15435600Y26624528D01*
X15560082Y26636788D01*
X15679780Y26673098D01*
X15790094Y26732063D01*
X15886785Y26811415D01*
X15966137Y26908106D01*
X15971177Y26917536D01*
X16008977Y26871477D01*
X16025252Y26858120D01*
X14030533Y24863400D01*
X11459085Y24863400D01*
X11336056Y24945605D01*
X11147698Y25023626D01*
X10947739Y25063400D01*
X10743861Y25063400D01*
X10543902Y25023626D01*
X10355544Y24945605D01*
X10186026Y24832337D01*
X10041863Y24688174D01*
X9928595Y24518656D01*
X9850574Y24330298D01*
X9810800Y24130339D01*
X9810800Y23926461D01*
X9846735Y23745800D01*
X9833485Y23745800D01*
X9710456Y23828005D01*
X9522098Y23906026D01*
X9322139Y23945800D01*
X9118261Y23945800D01*
X8918302Y23906026D01*
X8729944Y23828005D01*
X8560426Y23714737D01*
X8416263Y23570574D01*
X8302995Y23401056D01*
X8224974Y23212698D01*
X8185200Y23012739D01*
X8185200Y22808861D01*
X8221135Y22628200D01*
X4764672Y22628200D01*
X4764672Y22668600D01*
X4752412Y22793082D01*
X4716102Y22912780D01*
X4657137Y23023094D01*
X4577785Y23119785D01*
X4481094Y23199137D01*
X4370780Y23258102D01*
X4251082Y23294412D01*
X4126600Y23306672D01*
X2426600Y23306672D01*
X2302118Y23294412D01*
X2182420Y23258102D01*
X2072106Y23199137D01*
X1975415Y23119785D01*
X1896063Y23023094D01*
X1837098Y22912780D01*
X1800788Y22793082D01*
X1788528Y22668600D01*
X660000Y22668600D01*
X660000Y27262600D01*
X13847528Y27262600D01*
X13859788Y27138118D01*
X13896098Y27018420D01*
X13955063Y26908106D01*
X14034415Y26811415D01*
X14131106Y26732063D01*
X14241420Y26673098D01*
X14361118Y26636788D01*
X14485600Y26624528D01*
X14674850Y26627600D01*
X14833600Y26786350D01*
X14833600Y27660600D01*
X14009350Y27660600D01*
X13850600Y27501850D01*
X13847528Y27262600D01*
X660000Y27262600D01*
X660000Y34065600D01*
X14955600Y34065600D01*
X14955600Y33790600D01*
X15006508Y33527717D01*
X15107724Y33279817D01*
X15255358Y33056427D01*
X15443737Y32866131D01*
X15665621Y32716243D01*
X15912483Y32612522D01*
X15978342Y32600081D01*
X16188600Y32723082D01*
X16188600Y34065600D01*
X16442600Y34065600D01*
X16442600Y32723082D01*
X16652858Y32600081D01*
X16718717Y32612522D01*
X16965579Y32716243D01*
X17187463Y32866131D01*
X17375842Y33056427D01*
X17523476Y33279817D01*
X17624692Y33527717D01*
X17675600Y33790600D01*
X17675600Y34065600D01*
X16442600Y34065600D01*
X16188600Y34065600D01*
X14955600Y34065600D01*
X660000Y34065600D01*
X660000Y34594600D01*
X14955600Y34594600D01*
X14955600Y34319600D01*
X16188600Y34319600D01*
X16188600Y35662118D01*
X15978342Y35785119D01*
X15912483Y35772678D01*
X15665621Y35668957D01*
X15443737Y35519069D01*
X15255358Y35328773D01*
X15107724Y35105383D01*
X15006508Y34857483D01*
X14955600Y34594600D01*
X660000Y34594600D01*
X660000Y37865600D01*
X14955600Y37865600D01*
X14955600Y37540600D01*
X15003626Y37306981D01*
X15096306Y37087220D01*
X15230079Y36889763D01*
X15399803Y36722198D01*
X15598956Y36590964D01*
X15819885Y36501104D01*
X15851923Y36498965D01*
X16038600Y36624050D01*
X16038600Y37865600D01*
X16292600Y37865600D01*
X16292600Y36624050D01*
X16479277Y36498965D01*
X16511315Y36501104D01*
X16732244Y36590964D01*
X16931397Y36722198D01*
X17101121Y36889763D01*
X17234894Y37087220D01*
X17327574Y37306981D01*
X17375600Y37540600D01*
X17375600Y37865600D01*
X22705600Y37865600D01*
X22705600Y37540600D01*
X22753626Y37306981D01*
X22846306Y37087220D01*
X22980079Y36889763D01*
X23149803Y36722198D01*
X23348956Y36590964D01*
X23569885Y36501104D01*
X23601923Y36498965D01*
X23788600Y36624050D01*
X23788600Y37865600D01*
X24042600Y37865600D01*
X24042600Y36624050D01*
X24229277Y36498965D01*
X24261315Y36501104D01*
X24482244Y36590964D01*
X24681397Y36722198D01*
X24851121Y36889763D01*
X24984894Y37087220D01*
X25077574Y37306981D01*
X25125600Y37540600D01*
X25125600Y37865600D01*
X24042600Y37865600D01*
X23788600Y37865600D01*
X22705600Y37865600D01*
X17375600Y37865600D01*
X16292600Y37865600D01*
X16038600Y37865600D01*
X14955600Y37865600D01*
X660000Y37865600D01*
X660000Y38444600D01*
X14955600Y38444600D01*
X14955600Y38119600D01*
X16038600Y38119600D01*
X16038600Y39361150D01*
X16292600Y39361150D01*
X16292600Y38119600D01*
X17375600Y38119600D01*
X17375600Y38444600D01*
X22705600Y38444600D01*
X22705600Y38119600D01*
X23788600Y38119600D01*
X23788600Y39361150D01*
X24042600Y39361150D01*
X24042600Y38119600D01*
X25125600Y38119600D01*
X25125600Y38444600D01*
X25077574Y38678219D01*
X24984894Y38897980D01*
X24851121Y39095437D01*
X24681397Y39263002D01*
X24482244Y39394236D01*
X24261315Y39484096D01*
X24229277Y39486235D01*
X24042600Y39361150D01*
X23788600Y39361150D01*
X23601923Y39486235D01*
X23569885Y39484096D01*
X23348956Y39394236D01*
X23149803Y39263002D01*
X22980079Y39095437D01*
X22846306Y38897980D01*
X22753626Y38678219D01*
X22705600Y38444600D01*
X17375600Y38444600D01*
X17327574Y38678219D01*
X17234894Y38897980D01*
X17101121Y39095437D01*
X16931397Y39263002D01*
X16732244Y39394236D01*
X16511315Y39484096D01*
X16479277Y39486235D01*
X16292600Y39361150D01*
X16038600Y39361150D01*
X15851923Y39486235D01*
X15819885Y39484096D01*
X15598956Y39394236D01*
X15399803Y39263002D01*
X15230079Y39095437D01*
X15096306Y38897980D01*
X15003626Y38678219D01*
X14955600Y38444600D01*
X660000Y38444600D01*
X660000Y41986600D01*
X38938993Y41986600D01*
X38963607Y684976D01*
G37*
%TD.AperFunction*%
D22*
X19637400Y14741731D02*
X19637401Y14188828D01*
X19633360Y14147800D01*
X19649482Y13984112D01*
X19697228Y13826714D01*
X19774764Y13681655D01*
X19774765Y13681654D01*
X19879110Y13554509D01*
X19910974Y13528359D01*
X22406001Y11033330D01*
X22406001Y10943028D01*
X22371877Y10915023D01*
X22289614Y10814786D01*
X22250537Y10887894D01*
X22171185Y10984585D01*
X22074494Y11063937D01*
X21964180Y11122902D01*
X21844482Y11159212D01*
X21720000Y11171472D01*
X21468250Y11168400D01*
X21309500Y11009650D01*
X21309500Y10185400D01*
X21329500Y10185400D01*
X21329500Y9931400D01*
X21309500Y9931400D01*
X21309500Y9911400D01*
X21055500Y9911400D01*
X21055500Y9931400D01*
X21035500Y9931400D01*
X21035500Y10185400D01*
X21055500Y10185400D01*
X21055500Y11009650D01*
X20896750Y11168400D01*
X20645000Y11171472D01*
X20520518Y11159212D01*
X20400820Y11122902D01*
X20290506Y11063937D01*
X20242606Y11024626D01*
X20092567Y11104823D01*
X19928316Y11154648D01*
X19757500Y11171472D01*
X19157500Y11171472D01*
X18986684Y11154648D01*
X18822433Y11104823D01*
X18671058Y11023912D01*
X18538377Y10915023D01*
X18454298Y10812573D01*
X18414037Y10887894D01*
X18334685Y10984585D01*
X18237994Y11063937D01*
X18127680Y11122902D01*
X18007982Y11159212D01*
X17883500Y11171472D01*
X17631750Y11168400D01*
X17473000Y11009650D01*
X17473000Y10185400D01*
X17493000Y10185400D01*
X17493000Y9931400D01*
X17473000Y9931400D01*
X17473000Y9107150D01*
X17631750Y8948400D01*
X17883500Y8945328D01*
X18007982Y8957588D01*
X18127680Y8993898D01*
X18237994Y9052863D01*
X18334685Y9132215D01*
X18414037Y9228906D01*
X18454298Y9304227D01*
X18538377Y9201777D01*
X18671058Y9092888D01*
X18822433Y9011977D01*
X18986684Y8962152D01*
X19157500Y8945328D01*
X19363204Y8945328D01*
X20081563Y8226968D01*
X20107709Y8195109D01*
X20139568Y8168963D01*
X20139570Y8168961D01*
X20169636Y8144287D01*
X20234854Y8090764D01*
X20379913Y8013228D01*
X20537311Y7965482D01*
X20659981Y7953400D01*
X20659982Y7953400D01*
X20701000Y7949360D01*
X20742018Y7953400D01*
X24215982Y7953400D01*
X24231000Y7951921D01*
X24231000Y7559472D01*
X23632000Y7559472D01*
X23458746Y7542408D01*
X23292150Y7491872D01*
X23138614Y7409805D01*
X23004038Y7299362D01*
X22941031Y7222587D01*
X22912537Y7275894D01*
X22833185Y7372585D01*
X22736494Y7451937D01*
X22626180Y7510902D01*
X22506482Y7547212D01*
X22382000Y7559472D01*
X21367750Y7556400D01*
X21209000Y7397650D01*
X21209000Y6248400D01*
X21229000Y6248400D01*
X21229000Y5994400D01*
X21209000Y5994400D01*
X21209000Y4845150D01*
X21367750Y4686400D01*
X21893540Y4684807D01*
X21421933Y4213200D01*
X12766468Y4213200D01*
X12708092Y4271576D01*
X12679226Y4416698D01*
X12601205Y4605056D01*
X12548637Y4683730D01*
X13430250Y4686400D01*
X13589000Y4845150D01*
X13589000Y5994400D01*
X13569000Y5994400D01*
X13569000Y6248400D01*
X13589000Y6248400D01*
X13589000Y7397650D01*
X13430250Y7556400D01*
X12524610Y7559143D01*
X14188868Y9223400D01*
X14684131Y9223400D01*
X14701877Y9201777D01*
X14786000Y9132738D01*
X14786001Y7857428D01*
X14781960Y7816400D01*
X14798082Y7652712D01*
X14826540Y7558898D01*
X14001750Y7556400D01*
X13843000Y7397650D01*
X13843000Y6248400D01*
X13863000Y6248400D01*
X13863000Y5994400D01*
X13843000Y5994400D01*
X13843000Y4845150D01*
X14001750Y4686400D01*
X15016000Y4683328D01*
X15140482Y4695588D01*
X15260180Y4731898D01*
X15370494Y4790863D01*
X15467185Y4870215D01*
X15546537Y4966906D01*
X15575031Y5020213D01*
X15638038Y4943438D01*
X15772614Y4832995D01*
X15926150Y4750928D01*
X16092746Y4700392D01*
X16266000Y4683328D01*
X18366000Y4683328D01*
X18539254Y4700392D01*
X18705850Y4750928D01*
X18859386Y4832995D01*
X18993962Y4943438D01*
X19104405Y5078014D01*
X19160450Y5182867D01*
X19192498Y5077220D01*
X19251463Y4966906D01*
X19330815Y4870215D01*
X19427506Y4790863D01*
X19537820Y4731898D01*
X19657518Y4695588D01*
X19782000Y4683328D01*
X20796250Y4686400D01*
X20955000Y4845150D01*
X20955000Y5994400D01*
X20935000Y5994400D01*
X20935000Y6248400D01*
X20955000Y6248400D01*
X20955000Y7397650D01*
X20796250Y7556400D01*
X19782000Y7559472D01*
X19657518Y7547212D01*
X19537820Y7510902D01*
X19427506Y7451937D01*
X19330815Y7372585D01*
X19251463Y7275894D01*
X19192498Y7165580D01*
X19160450Y7059933D01*
X19104405Y7164786D01*
X18993962Y7299362D01*
X18859386Y7409805D01*
X18705850Y7491872D01*
X18539254Y7542408D01*
X18366000Y7559472D01*
X17058795Y7559472D01*
X16456000Y8162267D01*
X16456000Y9051797D01*
X16564320Y8993898D01*
X16684018Y8957588D01*
X16808500Y8945328D01*
X17060250Y8948400D01*
X17219000Y9107150D01*
X17219000Y9931400D01*
X17199000Y9931400D01*
X17199000Y10185400D01*
X17219000Y10185400D01*
X17219000Y11009650D01*
X17060250Y11168400D01*
X16808500Y11171472D01*
X16684018Y11159212D01*
X16564320Y11122902D01*
X16454006Y11063937D01*
X16406106Y11024626D01*
X16256067Y11104823D01*
X16091816Y11154648D01*
X15921000Y11171472D01*
X15321000Y11171472D01*
X15150184Y11154648D01*
X14985933Y11104823D01*
X14834558Y11023912D01*
X14701877Y10915023D01*
X14684131Y10893400D01*
X14111211Y10893400D01*
X14125205Y10914344D01*
X14203226Y11102702D01*
X14243000Y11302661D01*
X14243000Y11506539D01*
X14203226Y11706498D01*
X14125205Y11894856D01*
X14011937Y12064374D01*
X13867774Y12208537D01*
X13698256Y12321805D01*
X13509898Y12399826D01*
X13364776Y12428692D01*
X13316617Y12476851D01*
X13359294Y12499663D01*
X13455985Y12579015D01*
X13535337Y12675706D01*
X13594302Y12786020D01*
X13630612Y12905718D01*
X13642872Y13030200D01*
X13642872Y13385800D01*
X13630612Y13510282D01*
X13622143Y13538200D01*
X13630612Y13566118D01*
X13642872Y13690600D01*
X13642872Y14046200D01*
X13630612Y14170682D01*
X13622405Y14197736D01*
X13628863Y14218028D01*
X13639800Y14319250D01*
X13481050Y14478000D01*
X13471894Y14478000D01*
X13455985Y14497385D01*
X13417892Y14528647D01*
X13449814Y14554127D01*
X13471305Y14579600D01*
X13481050Y14579600D01*
X13639800Y14738350D01*
X13631166Y14818256D01*
X14673450Y14820896D01*
X14602195Y14714256D01*
X14524174Y14525898D01*
X14484400Y14325939D01*
X14484400Y14122061D01*
X14524174Y13922102D01*
X14602195Y13733744D01*
X14715463Y13564226D01*
X14766889Y13512800D01*
X14766263Y13512174D01*
X14652995Y13342656D01*
X14574974Y13154298D01*
X14535200Y12954339D01*
X14535200Y12750461D01*
X14574974Y12550502D01*
X14652995Y12362144D01*
X14766263Y12192626D01*
X14910426Y12048463D01*
X15079944Y11935195D01*
X15268302Y11857174D01*
X15468261Y11817400D01*
X15672139Y11817400D01*
X15872098Y11857174D01*
X16060456Y11935195D01*
X16229974Y12048463D01*
X16374137Y12192626D01*
X16487405Y12362144D01*
X16491902Y12373000D01*
X17808319Y12373000D01*
X17930989Y12385082D01*
X17954217Y12392128D01*
X18618200Y12392128D01*
X18742682Y12404388D01*
X18862380Y12440698D01*
X18972694Y12499663D01*
X19069385Y12579015D01*
X19148737Y12675706D01*
X19207702Y12786020D01*
X19244012Y12905718D01*
X19256272Y13030200D01*
X19256272Y13385800D01*
X19244012Y13510282D01*
X19235543Y13538200D01*
X19244012Y13566118D01*
X19256272Y13690600D01*
X19256272Y14046200D01*
X19244012Y14170682D01*
X19235543Y14198600D01*
X19244012Y14226518D01*
X19256272Y14351000D01*
X19256272Y14706600D01*
X19244012Y14831082D01*
X19235543Y14859000D01*
X19244012Y14886918D01*
X19256272Y15011400D01*
X19256272Y15014600D01*
X19364532Y15014600D01*
X19637400Y14741731D01*
%TA.AperFunction,Conductor*%
D23*
G36*
X19637400Y14741731D02*
G01*
X19637401Y14188828D01*
X19633360Y14147800D01*
X19649482Y13984112D01*
X19697228Y13826714D01*
X19774764Y13681655D01*
X19774765Y13681654D01*
X19879110Y13554509D01*
X19910974Y13528359D01*
X22406001Y11033330D01*
X22406001Y10943028D01*
X22371877Y10915023D01*
X22289614Y10814786D01*
X22250537Y10887894D01*
X22171185Y10984585D01*
X22074494Y11063937D01*
X21964180Y11122902D01*
X21844482Y11159212D01*
X21720000Y11171472D01*
X21468250Y11168400D01*
X21309500Y11009650D01*
X21309500Y10185400D01*
X21329500Y10185400D01*
X21329500Y9931400D01*
X21309500Y9931400D01*
X21309500Y9911400D01*
X21055500Y9911400D01*
X21055500Y9931400D01*
X21035500Y9931400D01*
X21035500Y10185400D01*
X21055500Y10185400D01*
X21055500Y11009650D01*
X20896750Y11168400D01*
X20645000Y11171472D01*
X20520518Y11159212D01*
X20400820Y11122902D01*
X20290506Y11063937D01*
X20242606Y11024626D01*
X20092567Y11104823D01*
X19928316Y11154648D01*
X19757500Y11171472D01*
X19157500Y11171472D01*
X18986684Y11154648D01*
X18822433Y11104823D01*
X18671058Y11023912D01*
X18538377Y10915023D01*
X18454298Y10812573D01*
X18414037Y10887894D01*
X18334685Y10984585D01*
X18237994Y11063937D01*
X18127680Y11122902D01*
X18007982Y11159212D01*
X17883500Y11171472D01*
X17631750Y11168400D01*
X17473000Y11009650D01*
X17473000Y10185400D01*
X17493000Y10185400D01*
X17493000Y9931400D01*
X17473000Y9931400D01*
X17473000Y9107150D01*
X17631750Y8948400D01*
X17883500Y8945328D01*
X18007982Y8957588D01*
X18127680Y8993898D01*
X18237994Y9052863D01*
X18334685Y9132215D01*
X18414037Y9228906D01*
X18454298Y9304227D01*
X18538377Y9201777D01*
X18671058Y9092888D01*
X18822433Y9011977D01*
X18986684Y8962152D01*
X19157500Y8945328D01*
X19363204Y8945328D01*
X20081563Y8226968D01*
X20107709Y8195109D01*
X20139568Y8168963D01*
X20139570Y8168961D01*
X20169636Y8144287D01*
X20234854Y8090764D01*
X20379913Y8013228D01*
X20537311Y7965482D01*
X20659981Y7953400D01*
X20659982Y7953400D01*
X20701000Y7949360D01*
X20742018Y7953400D01*
X24215982Y7953400D01*
X24231000Y7951921D01*
X24231000Y7559472D01*
X23632000Y7559472D01*
X23458746Y7542408D01*
X23292150Y7491872D01*
X23138614Y7409805D01*
X23004038Y7299362D01*
X22941031Y7222587D01*
X22912537Y7275894D01*
X22833185Y7372585D01*
X22736494Y7451937D01*
X22626180Y7510902D01*
X22506482Y7547212D01*
X22382000Y7559472D01*
X21367750Y7556400D01*
X21209000Y7397650D01*
X21209000Y6248400D01*
X21229000Y6248400D01*
X21229000Y5994400D01*
X21209000Y5994400D01*
X21209000Y4845150D01*
X21367750Y4686400D01*
X21893540Y4684807D01*
X21421933Y4213200D01*
X12766468Y4213200D01*
X12708092Y4271576D01*
X12679226Y4416698D01*
X12601205Y4605056D01*
X12548637Y4683730D01*
X13430250Y4686400D01*
X13589000Y4845150D01*
X13589000Y5994400D01*
X13569000Y5994400D01*
X13569000Y6248400D01*
X13589000Y6248400D01*
X13589000Y7397650D01*
X13430250Y7556400D01*
X12524610Y7559143D01*
X14188868Y9223400D01*
X14684131Y9223400D01*
X14701877Y9201777D01*
X14786000Y9132738D01*
X14786001Y7857428D01*
X14781960Y7816400D01*
X14798082Y7652712D01*
X14826540Y7558898D01*
X14001750Y7556400D01*
X13843000Y7397650D01*
X13843000Y6248400D01*
X13863000Y6248400D01*
X13863000Y5994400D01*
X13843000Y5994400D01*
X13843000Y4845150D01*
X14001750Y4686400D01*
X15016000Y4683328D01*
X15140482Y4695588D01*
X15260180Y4731898D01*
X15370494Y4790863D01*
X15467185Y4870215D01*
X15546537Y4966906D01*
X15575031Y5020213D01*
X15638038Y4943438D01*
X15772614Y4832995D01*
X15926150Y4750928D01*
X16092746Y4700392D01*
X16266000Y4683328D01*
X18366000Y4683328D01*
X18539254Y4700392D01*
X18705850Y4750928D01*
X18859386Y4832995D01*
X18993962Y4943438D01*
X19104405Y5078014D01*
X19160450Y5182867D01*
X19192498Y5077220D01*
X19251463Y4966906D01*
X19330815Y4870215D01*
X19427506Y4790863D01*
X19537820Y4731898D01*
X19657518Y4695588D01*
X19782000Y4683328D01*
X20796250Y4686400D01*
X20955000Y4845150D01*
X20955000Y5994400D01*
X20935000Y5994400D01*
X20935000Y6248400D01*
X20955000Y6248400D01*
X20955000Y7397650D01*
X20796250Y7556400D01*
X19782000Y7559472D01*
X19657518Y7547212D01*
X19537820Y7510902D01*
X19427506Y7451937D01*
X19330815Y7372585D01*
X19251463Y7275894D01*
X19192498Y7165580D01*
X19160450Y7059933D01*
X19104405Y7164786D01*
X18993962Y7299362D01*
X18859386Y7409805D01*
X18705850Y7491872D01*
X18539254Y7542408D01*
X18366000Y7559472D01*
X17058795Y7559472D01*
X16456000Y8162267D01*
X16456000Y9051797D01*
X16564320Y8993898D01*
X16684018Y8957588D01*
X16808500Y8945328D01*
X17060250Y8948400D01*
X17219000Y9107150D01*
X17219000Y9931400D01*
X17199000Y9931400D01*
X17199000Y10185400D01*
X17219000Y10185400D01*
X17219000Y11009650D01*
X17060250Y11168400D01*
X16808500Y11171472D01*
X16684018Y11159212D01*
X16564320Y11122902D01*
X16454006Y11063937D01*
X16406106Y11024626D01*
X16256067Y11104823D01*
X16091816Y11154648D01*
X15921000Y11171472D01*
X15321000Y11171472D01*
X15150184Y11154648D01*
X14985933Y11104823D01*
X14834558Y11023912D01*
X14701877Y10915023D01*
X14684131Y10893400D01*
X14111211Y10893400D01*
X14125205Y10914344D01*
X14203226Y11102702D01*
X14243000Y11302661D01*
X14243000Y11506539D01*
X14203226Y11706498D01*
X14125205Y11894856D01*
X14011937Y12064374D01*
X13867774Y12208537D01*
X13698256Y12321805D01*
X13509898Y12399826D01*
X13364776Y12428692D01*
X13316617Y12476851D01*
X13359294Y12499663D01*
X13455985Y12579015D01*
X13535337Y12675706D01*
X13594302Y12786020D01*
X13630612Y12905718D01*
X13642872Y13030200D01*
X13642872Y13385800D01*
X13630612Y13510282D01*
X13622143Y13538200D01*
X13630612Y13566118D01*
X13642872Y13690600D01*
X13642872Y14046200D01*
X13630612Y14170682D01*
X13622405Y14197736D01*
X13628863Y14218028D01*
X13639800Y14319250D01*
X13481050Y14478000D01*
X13471894Y14478000D01*
X13455985Y14497385D01*
X13417892Y14528647D01*
X13449814Y14554127D01*
X13471305Y14579600D01*
X13481050Y14579600D01*
X13639800Y14738350D01*
X13631166Y14818256D01*
X14673450Y14820896D01*
X14602195Y14714256D01*
X14524174Y14525898D01*
X14484400Y14325939D01*
X14484400Y14122061D01*
X14524174Y13922102D01*
X14602195Y13733744D01*
X14715463Y13564226D01*
X14766889Y13512800D01*
X14766263Y13512174D01*
X14652995Y13342656D01*
X14574974Y13154298D01*
X14535200Y12954339D01*
X14535200Y12750461D01*
X14574974Y12550502D01*
X14652995Y12362144D01*
X14766263Y12192626D01*
X14910426Y12048463D01*
X15079944Y11935195D01*
X15268302Y11857174D01*
X15468261Y11817400D01*
X15672139Y11817400D01*
X15872098Y11857174D01*
X16060456Y11935195D01*
X16229974Y12048463D01*
X16374137Y12192626D01*
X16487405Y12362144D01*
X16491902Y12373000D01*
X17808319Y12373000D01*
X17930989Y12385082D01*
X17954217Y12392128D01*
X18618200Y12392128D01*
X18742682Y12404388D01*
X18862380Y12440698D01*
X18972694Y12499663D01*
X19069385Y12579015D01*
X19148737Y12675706D01*
X19207702Y12786020D01*
X19244012Y12905718D01*
X19256272Y13030200D01*
X19256272Y13385800D01*
X19244012Y13510282D01*
X19235543Y13538200D01*
X19244012Y13566118D01*
X19256272Y13690600D01*
X19256272Y14046200D01*
X19244012Y14170682D01*
X19235543Y14198600D01*
X19244012Y14226518D01*
X19256272Y14351000D01*
X19256272Y14706600D01*
X19244012Y14831082D01*
X19235543Y14859000D01*
X19244012Y14886918D01*
X19256272Y15011400D01*
X19256272Y15014600D01*
X19364532Y15014600D01*
X19637400Y14741731D01*
G37*
%TD.AperFunction*%
D22*
X12280900Y15195550D02*
X12287250Y15189200D01*
X12280900Y15182850D01*
X12280900Y15042200D01*
X12026900Y15042200D01*
X12026900Y15182850D01*
X12020550Y15189200D01*
X12026900Y15195550D01*
X12026900Y15336200D01*
X12280900Y15336200D01*
X12280900Y15195550D01*
%TA.AperFunction,Conductor*%
D23*
G36*
X12280900Y15195550D02*
G01*
X12287250Y15189200D01*
X12280900Y15182850D01*
X12280900Y15042200D01*
X12026900Y15042200D01*
X12026900Y15182850D01*
X12020550Y15189200D01*
X12026900Y15195550D01*
X12026900Y15336200D01*
X12280900Y15336200D01*
X12280900Y15195550D01*
G37*
%TD.AperFunction*%
D22*
X26596098Y20367280D02*
X26559788Y20247582D01*
X26547528Y20123100D01*
X26550600Y19871350D01*
X26709350Y19712600D01*
X27533600Y19712600D01*
X27533600Y19732600D01*
X27787600Y19732600D01*
X27787600Y19712600D01*
X27807600Y19712600D01*
X27807600Y19458600D01*
X27787600Y19458600D01*
X27787600Y18571850D01*
X27946350Y18413100D01*
X28135600Y18410028D01*
X28171800Y18413593D01*
X28171800Y17857607D01*
X28135600Y17861172D01*
X27946350Y17858100D01*
X27787600Y17699350D01*
X27787600Y16812600D01*
X27807600Y16812600D01*
X27807600Y16558600D01*
X27787600Y16558600D01*
X27787600Y16538600D01*
X27533600Y16538600D01*
X27533600Y16558600D01*
X26709350Y16558600D01*
X26550600Y16399850D01*
X26547528Y16148100D01*
X26559788Y16023618D01*
X26596098Y15903920D01*
X26653997Y15795600D01*
X25086687Y15795600D01*
X25077971Y15816643D01*
X24926399Y16043486D01*
X24733486Y16236399D01*
X24506643Y16387971D01*
X24254589Y16492375D01*
X23987011Y16545600D01*
X23714189Y16545600D01*
X23657703Y16534364D01*
X22968968Y17223100D01*
X26547528Y17223100D01*
X26550600Y16971350D01*
X26709350Y16812600D01*
X27533600Y16812600D01*
X27533600Y17699350D01*
X27374850Y17858100D01*
X27185600Y17861172D01*
X27061118Y17848912D01*
X26941420Y17812602D01*
X26831106Y17753637D01*
X26734415Y17674285D01*
X26655063Y17577594D01*
X26596098Y17467280D01*
X26559788Y17347582D01*
X26547528Y17223100D01*
X22968968Y17223100D01*
X22510078Y17681990D01*
X22622287Y17716028D01*
X22767346Y17793564D01*
X22894491Y17897909D01*
X22920646Y17929779D01*
X23657703Y18666836D01*
X23714189Y18655600D01*
X23987011Y18655600D01*
X24254589Y18708825D01*
X24506643Y18813229D01*
X24733486Y18964801D01*
X24816785Y19048100D01*
X26547528Y19048100D01*
X26559788Y18923618D01*
X26596098Y18803920D01*
X26655063Y18693606D01*
X26734415Y18596915D01*
X26831106Y18517563D01*
X26941420Y18458598D01*
X27061118Y18422288D01*
X27185600Y18410028D01*
X27374850Y18413100D01*
X27533600Y18571850D01*
X27533600Y19458600D01*
X26709350Y19458600D01*
X26550600Y19299850D01*
X26547528Y19048100D01*
X24816785Y19048100D01*
X24926399Y19157714D01*
X25077971Y19384557D01*
X25182375Y19636611D01*
X25235600Y19904189D01*
X25235600Y20177011D01*
X25224364Y20233497D01*
X25466468Y20475600D01*
X26653997Y20475600D01*
X26596098Y20367280D01*
%TA.AperFunction,Conductor*%
D23*
G36*
X26596098Y20367280D02*
G01*
X26559788Y20247582D01*
X26547528Y20123100D01*
X26550600Y19871350D01*
X26709350Y19712600D01*
X27533600Y19712600D01*
X27533600Y19732600D01*
X27787600Y19732600D01*
X27787600Y19712600D01*
X27807600Y19712600D01*
X27807600Y19458600D01*
X27787600Y19458600D01*
X27787600Y18571850D01*
X27946350Y18413100D01*
X28135600Y18410028D01*
X28171800Y18413593D01*
X28171800Y17857607D01*
X28135600Y17861172D01*
X27946350Y17858100D01*
X27787600Y17699350D01*
X27787600Y16812600D01*
X27807600Y16812600D01*
X27807600Y16558600D01*
X27787600Y16558600D01*
X27787600Y16538600D01*
X27533600Y16538600D01*
X27533600Y16558600D01*
X26709350Y16558600D01*
X26550600Y16399850D01*
X26547528Y16148100D01*
X26559788Y16023618D01*
X26596098Y15903920D01*
X26653997Y15795600D01*
X25086687Y15795600D01*
X25077971Y15816643D01*
X24926399Y16043486D01*
X24733486Y16236399D01*
X24506643Y16387971D01*
X24254589Y16492375D01*
X23987011Y16545600D01*
X23714189Y16545600D01*
X23657703Y16534364D01*
X22968968Y17223100D01*
X26547528Y17223100D01*
X26550600Y16971350D01*
X26709350Y16812600D01*
X27533600Y16812600D01*
X27533600Y17699350D01*
X27374850Y17858100D01*
X27185600Y17861172D01*
X27061118Y17848912D01*
X26941420Y17812602D01*
X26831106Y17753637D01*
X26734415Y17674285D01*
X26655063Y17577594D01*
X26596098Y17467280D01*
X26559788Y17347582D01*
X26547528Y17223100D01*
X22968968Y17223100D01*
X22510078Y17681990D01*
X22622287Y17716028D01*
X22767346Y17793564D01*
X22894491Y17897909D01*
X22920646Y17929779D01*
X23657703Y18666836D01*
X23714189Y18655600D01*
X23987011Y18655600D01*
X24254589Y18708825D01*
X24506643Y18813229D01*
X24733486Y18964801D01*
X24816785Y19048100D01*
X26547528Y19048100D01*
X26559788Y18923618D01*
X26596098Y18803920D01*
X26655063Y18693606D01*
X26734415Y18596915D01*
X26831106Y18517563D01*
X26941420Y18458598D01*
X27061118Y18422288D01*
X27185600Y18410028D01*
X27374850Y18413100D01*
X27533600Y18571850D01*
X27533600Y19458600D01*
X26709350Y19458600D01*
X26550600Y19299850D01*
X26547528Y19048100D01*
X24816785Y19048100D01*
X24926399Y19157714D01*
X25077971Y19384557D01*
X25182375Y19636611D01*
X25235600Y19904189D01*
X25235600Y20177011D01*
X25224364Y20233497D01*
X25466468Y20475600D01*
X26653997Y20475600D01*
X26596098Y20367280D01*
G37*
%TD.AperFunction*%
D22*
X14925361Y20571370D02*
X14951509Y20539509D01*
X14983368Y20513363D01*
X14983370Y20513361D01*
X15045402Y20462453D01*
X15078654Y20435164D01*
X15223713Y20357628D01*
X15381111Y20309882D01*
X15503781Y20297800D01*
X15503782Y20297800D01*
X15544800Y20293760D01*
X15585818Y20297800D01*
X16278328Y20297800D01*
X16278328Y20294600D01*
X16289325Y20182942D01*
X15246350Y20180300D01*
X15087600Y20021550D01*
X15087600Y17627600D01*
X15107600Y17627600D01*
X15107600Y17373600D01*
X15087600Y17373600D01*
X15087600Y17353600D01*
X14833600Y17353600D01*
X14833600Y17373600D01*
X14813600Y17373600D01*
X14813600Y17627600D01*
X14833600Y17627600D01*
X14833600Y20021550D01*
X14674850Y20180300D01*
X13631875Y20182942D01*
X13642872Y20294600D01*
X13642872Y20650200D01*
X13630612Y20774682D01*
X13622143Y20802600D01*
X13630612Y20830518D01*
X13642872Y20955000D01*
X13642872Y21310600D01*
X13630612Y21435082D01*
X13622143Y21463000D01*
X13630612Y21490918D01*
X13642872Y21615400D01*
X13642872Y21853860D01*
X14925361Y20571370D01*
%TA.AperFunction,Conductor*%
D23*
G36*
X14925361Y20571370D02*
G01*
X14951509Y20539509D01*
X14983368Y20513363D01*
X14983370Y20513361D01*
X15045402Y20462453D01*
X15078654Y20435164D01*
X15223713Y20357628D01*
X15381111Y20309882D01*
X15503781Y20297800D01*
X15503782Y20297800D01*
X15544800Y20293760D01*
X15585818Y20297800D01*
X16278328Y20297800D01*
X16278328Y20294600D01*
X16289325Y20182942D01*
X15246350Y20180300D01*
X15087600Y20021550D01*
X15087600Y17627600D01*
X15107600Y17627600D01*
X15107600Y17373600D01*
X15087600Y17373600D01*
X15087600Y17353600D01*
X14833600Y17353600D01*
X14833600Y17373600D01*
X14813600Y17373600D01*
X14813600Y17627600D01*
X14833600Y17627600D01*
X14833600Y20021550D01*
X14674850Y20180300D01*
X13631875Y20182942D01*
X13642872Y20294600D01*
X13642872Y20650200D01*
X13630612Y20774682D01*
X13622143Y20802600D01*
X13630612Y20830518D01*
X13642872Y20955000D01*
X13642872Y21310600D01*
X13630612Y21435082D01*
X13622143Y21463000D01*
X13630612Y21490918D01*
X13642872Y21615400D01*
X13642872Y21853860D01*
X14925361Y20571370D01*
G37*
%TD.AperFunction*%
%TD*%
D24*
X27660600Y18161000D03*
X15214600Y17627600D03*
X9220200Y3378200D03*
X9220200Y22910800D03*
X32639000Y2565400D03*
X11684000Y4114800D03*
X10845800Y24028400D03*
X27584400Y30861000D03*
X27559000Y24968200D03*
X13208000Y11404600D03*
X28676600Y9652000D03*
X18770600Y22885400D03*
X15570200Y12852400D03*
X28702000Y10769600D03*
X15519400Y14224000D03*
X28752800Y11836400D03*
X23850600Y15160600D03*
X23850600Y20040600D03*
X17540600Y35242600D03*
X22540600Y35242600D03*
D25*
X16165600Y37992600D03*
X23915600Y37992600D03*
D26*
X16315600Y34192600D03*
X23765600Y34192600D03*
D24*
X3276600Y4038600D03*
X3276600Y6578600D03*
X3276600Y9118600D03*
X3276600Y11658600D03*
X3276600Y14198600D03*
X3276600Y16738600D03*
X3276600Y19278600D03*
X3276600Y21818600D03*
X36474400Y21818600D03*
X36474400Y19278600D03*
X36474400Y16738600D03*
X36474400Y14198600D03*
X36474400Y11658600D03*
X36474400Y9118600D03*
X36474400Y6578600D03*
X36474400Y4038600D03*
M02*
