%TF.GenerationSoftware,KiCad,Pcbnew,(5.1.12)-1*%
%TF.CreationDate,2021-12-10T16:35:34+08:00*%
%TF.ProjectId,PDIUSBD12_Module,50444955-5342-4443-9132-5f4d6f64756c,rev?*%
%TF.SameCoordinates,Original*%
%TF.FileFunction,Soldermask,Top*%
%TF.FilePolarity,Negative*%
%FSLAX46Y46*%
G04 Gerber Fmt 4.6, Leading zero omitted, Abs format (unit mm)*
G04 Created by KiCad (PCBNEW (5.1.12)-1) date 2021-12-10 16:35:34*
%MOMM*%
%LPD*%
G01*
G04 APERTURE LIST*
%ADD10R,2.997200X4.089400*%
%ADD11R,1.701800X0.355600*%
%ADD12C,1.500000*%
%ADD13O,0.800000X0.800000*%
%ADD14O,1.150000X1.800000*%
%ADD15O,1.450000X2.000000*%
%ADD16R,0.450000X1.300000*%
%ADD17O,1.700000X1.700000*%
%ADD18R,1.700000X1.700000*%
G04 APERTURE END LIST*
D10*
%TO.C,U1*%
X14960600Y17500600D03*
D11*
X17767300Y21793200D03*
X17767300Y21132800D03*
X17767300Y20472400D03*
X17767300Y19812000D03*
X17767300Y19151600D03*
X17767300Y18491200D03*
X17767300Y17830800D03*
X17767300Y17170400D03*
X17767300Y16510000D03*
X17767300Y15849600D03*
X17767300Y15189200D03*
X17767300Y14528800D03*
X17767300Y13868400D03*
X17767300Y13208000D03*
X12153900Y13208000D03*
X12153900Y13868400D03*
X12153900Y14528800D03*
X12153900Y15189200D03*
X12153900Y15849600D03*
X12153900Y16510000D03*
X12153900Y17170400D03*
X12153900Y17830800D03*
X12153900Y18491200D03*
X12153900Y19151600D03*
X12153900Y19812000D03*
X12153900Y20472400D03*
X12153900Y21132800D03*
X12153900Y21793200D03*
%TD*%
%TO.C,C6*%
G36*
G01*
X15016000Y6671400D02*
X15016000Y5571400D01*
G75*
G02*
X14766000Y5321400I-250000J0D01*
G01*
X12666000Y5321400D01*
G75*
G02*
X12416000Y5571400I0J250000D01*
G01*
X12416000Y6671400D01*
G75*
G02*
X12666000Y6921400I250000J0D01*
G01*
X14766000Y6921400D01*
G75*
G02*
X15016000Y6671400I0J-250000D01*
G01*
G37*
G36*
G01*
X18616000Y6671400D02*
X18616000Y5571400D01*
G75*
G02*
X18366000Y5321400I-250000J0D01*
G01*
X16266000Y5321400D01*
G75*
G02*
X16016000Y5571400I0J250000D01*
G01*
X16016000Y6671400D01*
G75*
G02*
X16266000Y6921400I250000J0D01*
G01*
X18366000Y6921400D01*
G75*
G02*
X18616000Y6671400I0J-250000D01*
G01*
G37*
%TD*%
D12*
%TO.C,Y1*%
X23850600Y15160600D03*
X23850600Y20040600D03*
%TD*%
%TO.C,TP2*%
X22326600Y25247600D03*
%TD*%
%TO.C,TP1*%
X18516600Y25247600D03*
%TD*%
%TO.C,R5*%
G36*
G01*
X18533100Y28275100D02*
X19008100Y28275100D01*
G75*
G02*
X19245600Y28037600I0J-237500D01*
G01*
X19245600Y27537600D01*
G75*
G02*
X19008100Y27300100I-237500J0D01*
G01*
X18533100Y27300100D01*
G75*
G02*
X18295600Y27537600I0J237500D01*
G01*
X18295600Y28037600D01*
G75*
G02*
X18533100Y28275100I237500J0D01*
G01*
G37*
G36*
G01*
X18533100Y30100100D02*
X19008100Y30100100D01*
G75*
G02*
X19245600Y29862600I0J-237500D01*
G01*
X19245600Y29362600D01*
G75*
G02*
X19008100Y29125100I-237500J0D01*
G01*
X18533100Y29125100D01*
G75*
G02*
X18295600Y29362600I0J237500D01*
G01*
X18295600Y29862600D01*
G75*
G02*
X18533100Y30100100I237500J0D01*
G01*
G37*
%TD*%
%TO.C,R4*%
G36*
G01*
X20438100Y28275100D02*
X20913100Y28275100D01*
G75*
G02*
X21150600Y28037600I0J-237500D01*
G01*
X21150600Y27537600D01*
G75*
G02*
X20913100Y27300100I-237500J0D01*
G01*
X20438100Y27300100D01*
G75*
G02*
X20200600Y27537600I0J237500D01*
G01*
X20200600Y28037600D01*
G75*
G02*
X20438100Y28275100I237500J0D01*
G01*
G37*
G36*
G01*
X20438100Y30100100D02*
X20913100Y30100100D01*
G75*
G02*
X21150600Y29862600I0J-237500D01*
G01*
X21150600Y29362600D01*
G75*
G02*
X20913100Y29125100I-237500J0D01*
G01*
X20438100Y29125100D01*
G75*
G02*
X20200600Y29362600I0J237500D01*
G01*
X20200600Y29862600D01*
G75*
G02*
X20438100Y30100100I237500J0D01*
G01*
G37*
%TD*%
%TO.C,R3*%
G36*
G01*
X25553500Y10295900D02*
X25553500Y9820900D01*
G75*
G02*
X25316000Y9583400I-237500J0D01*
G01*
X24816000Y9583400D01*
G75*
G02*
X24578500Y9820900I0J237500D01*
G01*
X24578500Y10295900D01*
G75*
G02*
X24816000Y10533400I237500J0D01*
G01*
X25316000Y10533400D01*
G75*
G02*
X25553500Y10295900I0J-237500D01*
G01*
G37*
G36*
G01*
X23728500Y10295900D02*
X23728500Y9820900D01*
G75*
G02*
X23491000Y9583400I-237500J0D01*
G01*
X22991000Y9583400D01*
G75*
G02*
X22753500Y9820900I0J237500D01*
G01*
X22753500Y10295900D01*
G75*
G02*
X22991000Y10533400I237500J0D01*
G01*
X23491000Y10533400D01*
G75*
G02*
X23728500Y10295900I0J-237500D01*
G01*
G37*
%TD*%
%TO.C,R2*%
G36*
G01*
X22818100Y29078100D02*
X22343100Y29078100D01*
G75*
G02*
X22105600Y29315600I0J237500D01*
G01*
X22105600Y29815600D01*
G75*
G02*
X22343100Y30053100I237500J0D01*
G01*
X22818100Y30053100D01*
G75*
G02*
X23055600Y29815600I0J-237500D01*
G01*
X23055600Y29315600D01*
G75*
G02*
X22818100Y29078100I-237500J0D01*
G01*
G37*
G36*
G01*
X22818100Y27253100D02*
X22343100Y27253100D01*
G75*
G02*
X22105600Y27490600I0J237500D01*
G01*
X22105600Y27990600D01*
G75*
G02*
X22343100Y28228100I237500J0D01*
G01*
X22818100Y28228100D01*
G75*
G02*
X23055600Y27990600I0J-237500D01*
G01*
X23055600Y27490600D01*
G75*
G02*
X22818100Y27253100I-237500J0D01*
G01*
G37*
%TD*%
%TO.C,R1*%
G36*
G01*
X16628100Y28228100D02*
X17103100Y28228100D01*
G75*
G02*
X17340600Y27990600I0J-237500D01*
G01*
X17340600Y27490600D01*
G75*
G02*
X17103100Y27253100I-237500J0D01*
G01*
X16628100Y27253100D01*
G75*
G02*
X16390600Y27490600I0J237500D01*
G01*
X16390600Y27990600D01*
G75*
G02*
X16628100Y28228100I237500J0D01*
G01*
G37*
G36*
G01*
X16628100Y30053100D02*
X17103100Y30053100D01*
G75*
G02*
X17340600Y29815600I0J-237500D01*
G01*
X17340600Y29315600D01*
G75*
G02*
X17103100Y29078100I-237500J0D01*
G01*
X16628100Y29078100D01*
G75*
G02*
X16390600Y29315600I0J237500D01*
G01*
X16390600Y29815600D01*
G75*
G02*
X16628100Y30053100I237500J0D01*
G01*
G37*
%TD*%
D13*
%TO.C,J3*%
X17540600Y35242600D03*
X22540600Y35242600D03*
D14*
X16165600Y37992600D03*
X23915600Y37992600D03*
D15*
X16315600Y34192600D03*
X23765600Y34192600D03*
D16*
X18740600Y34142600D03*
X19390600Y34142600D03*
X20040600Y34142600D03*
X20690600Y34142600D03*
X21340600Y34142600D03*
%TD*%
D17*
%TO.C,J2*%
X3276600Y4038600D03*
X3276600Y6578600D03*
X3276600Y9118600D03*
X3276600Y11658600D03*
X3276600Y14198600D03*
X3276600Y16738600D03*
X3276600Y19278600D03*
D18*
X3276600Y21818600D03*
%TD*%
%TO.C,J1*%
X36474400Y21818600D03*
D17*
X36474400Y19278600D03*
X36474400Y16738600D03*
X36474400Y14198600D03*
X36474400Y11658600D03*
X36474400Y9118600D03*
X36474400Y6578600D03*
X36474400Y4038600D03*
%TD*%
%TO.C,D2*%
G36*
G01*
X24248100Y28312600D02*
X24723100Y28312600D01*
G75*
G02*
X24960600Y28075100I0J-237500D01*
G01*
X24960600Y27500100D01*
G75*
G02*
X24723100Y27262600I-237500J0D01*
G01*
X24248100Y27262600D01*
G75*
G02*
X24010600Y27500100I0J237500D01*
G01*
X24010600Y28075100D01*
G75*
G02*
X24248100Y28312600I237500J0D01*
G01*
G37*
G36*
G01*
X24248100Y30062600D02*
X24723100Y30062600D01*
G75*
G02*
X24960600Y29825100I0J-237500D01*
G01*
X24960600Y29250100D01*
G75*
G02*
X24723100Y29012600I-237500J0D01*
G01*
X24248100Y29012600D01*
G75*
G02*
X24010600Y29250100I0J237500D01*
G01*
X24010600Y29825100D01*
G75*
G02*
X24248100Y30062600I237500J0D01*
G01*
G37*
%TD*%
%TO.C,D1*%
G36*
G01*
X15198100Y29012600D02*
X14723100Y29012600D01*
G75*
G02*
X14485600Y29250100I0J237500D01*
G01*
X14485600Y29825100D01*
G75*
G02*
X14723100Y30062600I237500J0D01*
G01*
X15198100Y30062600D01*
G75*
G02*
X15435600Y29825100I0J-237500D01*
G01*
X15435600Y29250100D01*
G75*
G02*
X15198100Y29012600I-237500J0D01*
G01*
G37*
G36*
G01*
X15198100Y27262600D02*
X14723100Y27262600D01*
G75*
G02*
X14485600Y27500100I0J237500D01*
G01*
X14485600Y28075100D01*
G75*
G02*
X14723100Y28312600I237500J0D01*
G01*
X15198100Y28312600D01*
G75*
G02*
X15435600Y28075100I0J-237500D01*
G01*
X15435600Y27500100D01*
G75*
G02*
X15198100Y27262600I-237500J0D01*
G01*
G37*
%TD*%
%TO.C,C5*%
G36*
G01*
X22382000Y6671400D02*
X22382000Y5571400D01*
G75*
G02*
X22132000Y5321400I-250000J0D01*
G01*
X20032000Y5321400D01*
G75*
G02*
X19782000Y5571400I0J250000D01*
G01*
X19782000Y6671400D01*
G75*
G02*
X20032000Y6921400I250000J0D01*
G01*
X22132000Y6921400D01*
G75*
G02*
X22382000Y6671400I0J-250000D01*
G01*
G37*
G36*
G01*
X25982000Y6671400D02*
X25982000Y5571400D01*
G75*
G02*
X25732000Y5321400I-250000J0D01*
G01*
X23632000Y5321400D01*
G75*
G02*
X23382000Y5571400I0J250000D01*
G01*
X23382000Y6671400D01*
G75*
G02*
X23632000Y6921400I250000J0D01*
G01*
X25732000Y6921400D01*
G75*
G02*
X25982000Y6671400I0J-250000D01*
G01*
G37*
%TD*%
%TO.C,C4*%
G36*
G01*
X15083500Y9820900D02*
X15083500Y10295900D01*
G75*
G02*
X15321000Y10533400I237500J0D01*
G01*
X15921000Y10533400D01*
G75*
G02*
X16158500Y10295900I0J-237500D01*
G01*
X16158500Y9820900D01*
G75*
G02*
X15921000Y9583400I-237500J0D01*
G01*
X15321000Y9583400D01*
G75*
G02*
X15083500Y9820900I0J237500D01*
G01*
G37*
G36*
G01*
X16808500Y9820900D02*
X16808500Y10295900D01*
G75*
G02*
X17046000Y10533400I237500J0D01*
G01*
X17646000Y10533400D01*
G75*
G02*
X17883500Y10295900I0J-237500D01*
G01*
X17883500Y9820900D01*
G75*
G02*
X17646000Y9583400I-237500J0D01*
G01*
X17046000Y9583400D01*
G75*
G02*
X16808500Y9820900I0J237500D01*
G01*
G37*
%TD*%
%TO.C,C3*%
G36*
G01*
X27423100Y15498100D02*
X27898100Y15498100D01*
G75*
G02*
X28135600Y15260600I0J-237500D01*
G01*
X28135600Y14660600D01*
G75*
G02*
X27898100Y14423100I-237500J0D01*
G01*
X27423100Y14423100D01*
G75*
G02*
X27185600Y14660600I0J237500D01*
G01*
X27185600Y15260600D01*
G75*
G02*
X27423100Y15498100I237500J0D01*
G01*
G37*
G36*
G01*
X27423100Y17223100D02*
X27898100Y17223100D01*
G75*
G02*
X28135600Y16985600I0J-237500D01*
G01*
X28135600Y16385600D01*
G75*
G02*
X27898100Y16148100I-237500J0D01*
G01*
X27423100Y16148100D01*
G75*
G02*
X27185600Y16385600I0J237500D01*
G01*
X27185600Y16985600D01*
G75*
G02*
X27423100Y17223100I237500J0D01*
G01*
G37*
%TD*%
%TO.C,C2*%
G36*
G01*
X27898100Y20773100D02*
X27423100Y20773100D01*
G75*
G02*
X27185600Y21010600I0J237500D01*
G01*
X27185600Y21610600D01*
G75*
G02*
X27423100Y21848100I237500J0D01*
G01*
X27898100Y21848100D01*
G75*
G02*
X28135600Y21610600I0J-237500D01*
G01*
X28135600Y21010600D01*
G75*
G02*
X27898100Y20773100I-237500J0D01*
G01*
G37*
G36*
G01*
X27898100Y19048100D02*
X27423100Y19048100D01*
G75*
G02*
X27185600Y19285600I0J237500D01*
G01*
X27185600Y19885600D01*
G75*
G02*
X27423100Y20123100I237500J0D01*
G01*
X27898100Y20123100D01*
G75*
G02*
X28135600Y19885600I0J-237500D01*
G01*
X28135600Y19285600D01*
G75*
G02*
X27898100Y19048100I-237500J0D01*
G01*
G37*
%TD*%
%TO.C,C1*%
G36*
G01*
X18920000Y9820900D02*
X18920000Y10295900D01*
G75*
G02*
X19157500Y10533400I237500J0D01*
G01*
X19757500Y10533400D01*
G75*
G02*
X19995000Y10295900I0J-237500D01*
G01*
X19995000Y9820900D01*
G75*
G02*
X19757500Y9583400I-237500J0D01*
G01*
X19157500Y9583400D01*
G75*
G02*
X18920000Y9820900I0J237500D01*
G01*
G37*
G36*
G01*
X20645000Y9820900D02*
X20645000Y10295900D01*
G75*
G02*
X20882500Y10533400I237500J0D01*
G01*
X21482500Y10533400D01*
G75*
G02*
X21720000Y10295900I0J-237500D01*
G01*
X21720000Y9820900D01*
G75*
G02*
X21482500Y9583400I-237500J0D01*
G01*
X20882500Y9583400D01*
G75*
G02*
X20645000Y9820900I0J237500D01*
G01*
G37*
%TD*%
M02*
