%TF.GenerationSoftware,KiCad,Pcbnew,(5.1.12)-1*%
%TF.CreationDate,2021-12-10T16:35:34+08:00*%
%TF.ProjectId,PDIUSBD12_Module,50444955-5342-4443-9132-5f4d6f64756c,rev?*%
%TF.SameCoordinates,Original*%
%TF.FileFunction,Legend,Top*%
%TF.FilePolarity,Positive*%
%FSLAX46Y46*%
G04 Gerber Fmt 4.6, Leading zero omitted, Abs format (unit mm)*
G04 Created by KiCad (PCBNEW (5.1.12)-1) date 2021-12-10 16:35:34*
%MOMM*%
%LPD*%
G01*
G04 APERTURE LIST*
%ADD10C,0.150000*%
%ADD11C,0.120000*%
%ADD12C,0.100000*%
G04 APERTURE END LIST*
D10*
X32359647Y4854439D02*
X31407266Y4854439D01*
X31312028Y3902058D01*
X31407266Y3997296D01*
X31597742Y4092534D01*
X32073933Y4092534D01*
X32264409Y3997296D01*
X32359647Y3902058D01*
X32454885Y3711581D01*
X32454885Y3235391D01*
X32359647Y3044915D01*
X32264409Y2949677D01*
X32073933Y2854439D01*
X31597742Y2854439D01*
X31407266Y2949677D01*
X31312028Y3044915D01*
X33026314Y4854439D02*
X33692980Y2854439D01*
X34359647Y4854439D01*
X30200790Y7375400D02*
X30010314Y7470639D01*
X29724600Y7470639D01*
X29438885Y7375400D01*
X29248409Y7184924D01*
X29153171Y6994448D01*
X29057933Y6613496D01*
X29057933Y6327781D01*
X29153171Y5946829D01*
X29248409Y5756353D01*
X29438885Y5565877D01*
X29724600Y5470639D01*
X29915076Y5470639D01*
X30200790Y5565877D01*
X30296028Y5661115D01*
X30296028Y6327781D01*
X29915076Y6327781D01*
X31153171Y5470639D02*
X31153171Y7470639D01*
X32296028Y5470639D01*
X32296028Y7470639D01*
X33248409Y5470639D02*
X33248409Y7470639D01*
X33724600Y7470639D01*
X34010314Y7375400D01*
X34200790Y7184924D01*
X34296028Y6994448D01*
X34391266Y6613496D01*
X34391266Y6327781D01*
X34296028Y5946829D01*
X34200790Y5756353D01*
X34010314Y5565877D01*
X33724600Y5470639D01*
X33248409Y5470639D01*
X28264219Y10010639D02*
X29502314Y10010639D01*
X28835647Y9248734D01*
X29121361Y9248734D01*
X29311838Y9153496D01*
X29407076Y9058258D01*
X29502314Y8867781D01*
X29502314Y8391591D01*
X29407076Y8201115D01*
X29311838Y8105877D01*
X29121361Y8010639D01*
X28549933Y8010639D01*
X28359457Y8105877D01*
X28264219Y8201115D01*
X30359457Y8201115D02*
X30454695Y8105877D01*
X30359457Y8010639D01*
X30264219Y8105877D01*
X30359457Y8201115D01*
X30359457Y8010639D01*
X31121361Y10010639D02*
X32359457Y10010639D01*
X31692790Y9248734D01*
X31978504Y9248734D01*
X32168980Y9153496D01*
X32264219Y9058258D01*
X32359457Y8867781D01*
X32359457Y8391591D01*
X32264219Y8201115D01*
X32168980Y8105877D01*
X31978504Y8010639D01*
X31407076Y8010639D01*
X31216600Y8105877D01*
X31121361Y8201115D01*
X32930885Y10010639D02*
X33597552Y8010639D01*
X34264219Y10010639D01*
X30423076Y13090639D02*
X30423076Y15090639D01*
X31375457Y13090639D02*
X31375457Y15090639D01*
X32518314Y13090639D01*
X32518314Y15090639D01*
X33184980Y15090639D02*
X34327838Y15090639D01*
X33756409Y13090639D02*
X33756409Y15090639D01*
X31312028Y16379867D02*
X32264409Y16379867D01*
X31121552Y15808439D02*
X31788219Y17808439D01*
X32454885Y15808439D01*
X33502504Y17808439D02*
X33692980Y17808439D01*
X33883457Y17713200D01*
X33978695Y17617962D01*
X34073933Y17427486D01*
X34169171Y17046534D01*
X34169171Y16570343D01*
X34073933Y16189391D01*
X33978695Y15998915D01*
X33883457Y15903677D01*
X33692980Y15808439D01*
X33502504Y15808439D01*
X33312028Y15903677D01*
X33216790Y15998915D01*
X33121552Y16189391D01*
X33026314Y16570343D01*
X33026314Y17046534D01*
X33121552Y17427486D01*
X33216790Y17617962D01*
X33312028Y17713200D01*
X33502504Y17808439D01*
X32359647Y18348439D02*
X31692980Y19300820D01*
X31216790Y18348439D02*
X31216790Y20348439D01*
X31978695Y20348439D01*
X32169171Y20253200D01*
X32264409Y20157962D01*
X32359647Y19967486D01*
X32359647Y19681772D01*
X32264409Y19491296D01*
X32169171Y19396058D01*
X31978695Y19300820D01*
X31216790Y19300820D01*
X33216790Y18348439D02*
X33216790Y20348439D01*
X33692980Y20348439D01*
X33978695Y20253200D01*
X34169171Y20062724D01*
X34264409Y19872248D01*
X34359647Y19491296D01*
X34359647Y19205581D01*
X34264409Y18824629D01*
X34169171Y18634153D01*
X33978695Y18443677D01*
X33692980Y18348439D01*
X33216790Y18348439D01*
X30883457Y22964639D02*
X31359647Y20964639D01*
X31740600Y22393210D01*
X32121552Y20964639D01*
X32597742Y22964639D01*
X34502504Y20964639D02*
X33835838Y21917020D01*
X33359647Y20964639D02*
X33359647Y22964639D01*
X34121552Y22964639D01*
X34312028Y22869400D01*
X34407266Y22774162D01*
X34502504Y22583686D01*
X34502504Y22297972D01*
X34407266Y22107496D01*
X34312028Y22012258D01*
X34121552Y21917020D01*
X33359647Y21917020D01*
X5356409Y2930639D02*
X5356409Y4930639D01*
X5832600Y4930639D01*
X6118314Y4835400D01*
X6308790Y4644924D01*
X6404028Y4454448D01*
X6499266Y4073496D01*
X6499266Y3787781D01*
X6404028Y3406829D01*
X6308790Y3216353D01*
X6118314Y3025877D01*
X5832600Y2930639D01*
X5356409Y2930639D01*
X7165933Y4930639D02*
X8499266Y4930639D01*
X7642123Y2930639D01*
X5356409Y5470639D02*
X5356409Y7470639D01*
X5832600Y7470639D01*
X6118314Y7375400D01*
X6308790Y7184924D01*
X6404028Y6994448D01*
X6499266Y6613496D01*
X6499266Y6327781D01*
X6404028Y5946829D01*
X6308790Y5756353D01*
X6118314Y5565877D01*
X5832600Y5470639D01*
X5356409Y5470639D01*
X8213552Y7470639D02*
X7832600Y7470639D01*
X7642123Y7375400D01*
X7546885Y7280162D01*
X7356409Y6994448D01*
X7261171Y6613496D01*
X7261171Y5851591D01*
X7356409Y5661115D01*
X7451647Y5565877D01*
X7642123Y5470639D01*
X8023076Y5470639D01*
X8213552Y5565877D01*
X8308790Y5661115D01*
X8404028Y5851591D01*
X8404028Y6327781D01*
X8308790Y6518258D01*
X8213552Y6613496D01*
X8023076Y6708734D01*
X7642123Y6708734D01*
X7451647Y6613496D01*
X7356409Y6518258D01*
X7261171Y6327781D01*
X5356409Y8010639D02*
X5356409Y10010639D01*
X5832600Y10010639D01*
X6118314Y9915400D01*
X6308790Y9724924D01*
X6404028Y9534448D01*
X6499266Y9153496D01*
X6499266Y8867781D01*
X6404028Y8486829D01*
X6308790Y8296353D01*
X6118314Y8105877D01*
X5832600Y8010639D01*
X5356409Y8010639D01*
X8308790Y10010639D02*
X7356409Y10010639D01*
X7261171Y9058258D01*
X7356409Y9153496D01*
X7546885Y9248734D01*
X8023076Y9248734D01*
X8213552Y9153496D01*
X8308790Y9058258D01*
X8404028Y8867781D01*
X8404028Y8391591D01*
X8308790Y8201115D01*
X8213552Y8105877D01*
X8023076Y8010639D01*
X7546885Y8010639D01*
X7356409Y8105877D01*
X7261171Y8201115D01*
X5356409Y10550639D02*
X5356409Y12550639D01*
X5832600Y12550639D01*
X6118314Y12455400D01*
X6308790Y12264924D01*
X6404028Y12074448D01*
X6499266Y11693496D01*
X6499266Y11407781D01*
X6404028Y11026829D01*
X6308790Y10836353D01*
X6118314Y10645877D01*
X5832600Y10550639D01*
X5356409Y10550639D01*
X8213552Y11883972D02*
X8213552Y10550639D01*
X7737361Y12645877D02*
X7261171Y11217305D01*
X8499266Y11217305D01*
X5356409Y13090639D02*
X5356409Y15090639D01*
X5832600Y15090639D01*
X6118314Y14995400D01*
X6308790Y14804924D01*
X6404028Y14614448D01*
X6499266Y14233496D01*
X6499266Y13947781D01*
X6404028Y13566829D01*
X6308790Y13376353D01*
X6118314Y13185877D01*
X5832600Y13090639D01*
X5356409Y13090639D01*
X7165933Y15090639D02*
X8404028Y15090639D01*
X7737361Y14328734D01*
X8023076Y14328734D01*
X8213552Y14233496D01*
X8308790Y14138258D01*
X8404028Y13947781D01*
X8404028Y13471591D01*
X8308790Y13281115D01*
X8213552Y13185877D01*
X8023076Y13090639D01*
X7451647Y13090639D01*
X7261171Y13185877D01*
X7165933Y13281115D01*
X5356409Y15630639D02*
X5356409Y17630639D01*
X5832600Y17630639D01*
X6118314Y17535400D01*
X6308790Y17344924D01*
X6404028Y17154448D01*
X6499266Y16773496D01*
X6499266Y16487781D01*
X6404028Y16106829D01*
X6308790Y15916353D01*
X6118314Y15725877D01*
X5832600Y15630639D01*
X5356409Y15630639D01*
X7261171Y17440162D02*
X7356409Y17535400D01*
X7546885Y17630639D01*
X8023076Y17630639D01*
X8213552Y17535400D01*
X8308790Y17440162D01*
X8404028Y17249686D01*
X8404028Y17059210D01*
X8308790Y16773496D01*
X7165933Y15630639D01*
X8404028Y15630639D01*
X5356409Y18272239D02*
X5356409Y20272239D01*
X5832600Y20272239D01*
X6118314Y20177000D01*
X6308790Y19986524D01*
X6404028Y19796048D01*
X6499266Y19415096D01*
X6499266Y19129381D01*
X6404028Y18748429D01*
X6308790Y18557953D01*
X6118314Y18367477D01*
X5832600Y18272239D01*
X5356409Y18272239D01*
X8404028Y18272239D02*
X7261171Y18272239D01*
X7832600Y18272239D02*
X7832600Y20272239D01*
X7642123Y19986524D01*
X7451647Y19796048D01*
X7261171Y19700810D01*
X5356409Y20796999D02*
X5356409Y22796999D01*
X5832600Y22796999D01*
X6118314Y22701760D01*
X6308790Y22511284D01*
X6404028Y22320808D01*
X6499266Y21939856D01*
X6499266Y21654141D01*
X6404028Y21273189D01*
X6308790Y21082713D01*
X6118314Y20892237D01*
X5832600Y20796999D01*
X5356409Y20796999D01*
X7737361Y22796999D02*
X7927838Y22796999D01*
X8118314Y22701760D01*
X8213552Y22606522D01*
X8308790Y22416046D01*
X8404028Y22035094D01*
X8404028Y21558903D01*
X8308790Y21177951D01*
X8213552Y20987475D01*
X8118314Y20892237D01*
X7927838Y20796999D01*
X7737361Y20796999D01*
X7546885Y20892237D01*
X7451647Y20987475D01*
X7356409Y21177951D01*
X7261171Y21558903D01*
X7261171Y22035094D01*
X7356409Y22416046D01*
X7451647Y22606522D01*
X7546885Y22701760D01*
X7737361Y22796999D01*
X3786619Y38078420D02*
X3786619Y39078420D01*
X4167571Y39078420D01*
X4262809Y39030800D01*
X4310428Y38983181D01*
X4358047Y38887943D01*
X4358047Y38745086D01*
X4310428Y38649848D01*
X4262809Y38602229D01*
X4167571Y38554610D01*
X3786619Y38554610D01*
X4786619Y38078420D02*
X4786619Y39078420D01*
X5262809Y39078420D02*
X5262809Y38268896D01*
X5310428Y38173658D01*
X5358047Y38126039D01*
X5453285Y38078420D01*
X5643761Y38078420D01*
X5739000Y38126039D01*
X5786619Y38173658D01*
X5834238Y38268896D01*
X5834238Y39078420D01*
X6262809Y38126039D02*
X6405666Y38078420D01*
X6643761Y38078420D01*
X6739000Y38126039D01*
X6786619Y38173658D01*
X6834238Y38268896D01*
X6834238Y38364134D01*
X6786619Y38459372D01*
X6739000Y38506991D01*
X6643761Y38554610D01*
X6453285Y38602229D01*
X6358047Y38649848D01*
X6310428Y38697467D01*
X6262809Y38792705D01*
X6262809Y38887943D01*
X6310428Y38983181D01*
X6358047Y39030800D01*
X6453285Y39078420D01*
X6691380Y39078420D01*
X6834238Y39030800D01*
X7596142Y38602229D02*
X7739000Y38554610D01*
X7786619Y38506991D01*
X7834238Y38411753D01*
X7834238Y38268896D01*
X7786619Y38173658D01*
X7739000Y38126039D01*
X7643761Y38078420D01*
X7262809Y38078420D01*
X7262809Y39078420D01*
X7596142Y39078420D01*
X7691380Y39030800D01*
X7739000Y38983181D01*
X7786619Y38887943D01*
X7786619Y38792705D01*
X7739000Y38697467D01*
X7691380Y38649848D01*
X7596142Y38602229D01*
X7262809Y38602229D01*
X8262809Y38078420D02*
X8262809Y39078420D01*
X8500904Y39078420D01*
X8643761Y39030800D01*
X8739000Y38935562D01*
X8786619Y38840324D01*
X8834238Y38649848D01*
X8834238Y38506991D01*
X8786619Y38316515D01*
X8739000Y38221277D01*
X8643761Y38126039D01*
X8500904Y38078420D01*
X8262809Y38078420D01*
X9786619Y38078420D02*
X9215190Y38078420D01*
X9500904Y38078420D02*
X9500904Y39078420D01*
X9405666Y38935562D01*
X9310428Y38840324D01*
X9215190Y38792705D01*
X10167571Y38983181D02*
X10215190Y39030800D01*
X10310428Y39078420D01*
X10548523Y39078420D01*
X10643761Y39030800D01*
X10691380Y38983181D01*
X10739000Y38887943D01*
X10739000Y38792705D01*
X10691380Y38649848D01*
X10119952Y38078420D01*
X10739000Y38078420D01*
X3143761Y37333181D02*
X3191380Y37380800D01*
X3286619Y37428420D01*
X3524714Y37428420D01*
X3619952Y37380800D01*
X3667571Y37333181D01*
X3715190Y37237943D01*
X3715190Y37142705D01*
X3667571Y36999848D01*
X3096142Y36428420D01*
X3715190Y36428420D01*
X4334238Y37428420D02*
X4429476Y37428420D01*
X4524714Y37380800D01*
X4572333Y37333181D01*
X4619952Y37237943D01*
X4667571Y37047467D01*
X4667571Y36809372D01*
X4619952Y36618896D01*
X4572333Y36523658D01*
X4524714Y36476039D01*
X4429476Y36428420D01*
X4334238Y36428420D01*
X4239000Y36476039D01*
X4191380Y36523658D01*
X4143761Y36618896D01*
X4096142Y36809372D01*
X4096142Y37047467D01*
X4143761Y37237943D01*
X4191380Y37333181D01*
X4239000Y37380800D01*
X4334238Y37428420D01*
X5048523Y37333181D02*
X5096142Y37380800D01*
X5191380Y37428420D01*
X5429476Y37428420D01*
X5524714Y37380800D01*
X5572333Y37333181D01*
X5619952Y37237943D01*
X5619952Y37142705D01*
X5572333Y36999848D01*
X5000904Y36428420D01*
X5619952Y36428420D01*
X6572333Y36428420D02*
X6000904Y36428420D01*
X6286619Y36428420D02*
X6286619Y37428420D01*
X6191380Y37285562D01*
X6096142Y37190324D01*
X6000904Y37142705D01*
X7000904Y36523658D02*
X7048523Y36476039D01*
X7000904Y36428420D01*
X6953285Y36476039D01*
X7000904Y36523658D01*
X7000904Y36428420D01*
X8000904Y36428420D02*
X7429476Y36428420D01*
X7715190Y36428420D02*
X7715190Y37428420D01*
X7619952Y37285562D01*
X7524714Y37190324D01*
X7429476Y37142705D01*
X8381857Y37333181D02*
X8429476Y37380800D01*
X8524714Y37428420D01*
X8762809Y37428420D01*
X8858047Y37380800D01*
X8905666Y37333181D01*
X8953285Y37237943D01*
X8953285Y37142705D01*
X8905666Y36999848D01*
X8334238Y36428420D01*
X8953285Y36428420D01*
X9381857Y36523658D02*
X9429476Y36476039D01*
X9381857Y36428420D01*
X9334238Y36476039D01*
X9381857Y36523658D01*
X9381857Y36428420D01*
X10381857Y36428420D02*
X9810428Y36428420D01*
X10096142Y36428420D02*
X10096142Y37428420D01*
X10000904Y37285562D01*
X9905666Y37190324D01*
X9810428Y37142705D01*
X11000904Y37428420D02*
X11096142Y37428420D01*
X11191380Y37380800D01*
X11239000Y37333181D01*
X11286619Y37237943D01*
X11334238Y37047467D01*
X11334238Y36809372D01*
X11286619Y36618896D01*
X11239000Y36523658D01*
X11191380Y36476039D01*
X11096142Y36428420D01*
X11000904Y36428420D01*
X10905666Y36476039D01*
X10858047Y36523658D01*
X10810428Y36618896D01*
X10762809Y36809372D01*
X10762809Y37047467D01*
X10810428Y37237943D01*
X10858047Y37333181D01*
X10905666Y37380800D01*
X11000904Y37428420D01*
X1262809Y34778420D02*
X1262809Y35778420D01*
X1596142Y35064134D01*
X1929476Y35778420D01*
X1929476Y34778420D01*
X2834238Y34778420D02*
X2834238Y35302229D01*
X2786619Y35397467D01*
X2691380Y35445086D01*
X2500904Y35445086D01*
X2405666Y35397467D01*
X2834238Y34826039D02*
X2739000Y34778420D01*
X2500904Y34778420D01*
X2405666Y34826039D01*
X2358047Y34921277D01*
X2358047Y35016515D01*
X2405666Y35111753D01*
X2500904Y35159372D01*
X2739000Y35159372D01*
X2834238Y35206991D01*
X3310428Y34778420D02*
X3310428Y35778420D01*
X3405666Y35159372D02*
X3691380Y34778420D01*
X3691380Y35445086D02*
X3310428Y35064134D01*
X4500904Y34826039D02*
X4405666Y34778420D01*
X4215190Y34778420D01*
X4119952Y34826039D01*
X4072333Y34921277D01*
X4072333Y35302229D01*
X4119952Y35397467D01*
X4215190Y35445086D01*
X4405666Y35445086D01*
X4500904Y35397467D01*
X4548523Y35302229D01*
X4548523Y35206991D01*
X4072333Y35111753D01*
X5739000Y34778420D02*
X5739000Y35778420D01*
X5739000Y35397467D02*
X5834238Y35445086D01*
X6024714Y35445086D01*
X6119952Y35397467D01*
X6167571Y35349848D01*
X6215190Y35254610D01*
X6215190Y34968896D01*
X6167571Y34873658D01*
X6119952Y34826039D01*
X6024714Y34778420D01*
X5834238Y34778420D01*
X5739000Y34826039D01*
X6548523Y35445086D02*
X6786619Y34778420D01*
X7024714Y35445086D02*
X6786619Y34778420D01*
X6691380Y34540324D01*
X6643761Y34492705D01*
X6548523Y34445086D01*
X8167571Y34778420D02*
X8167571Y35778420D01*
X8405666Y35778420D01*
X8548523Y35730800D01*
X8643761Y35635562D01*
X8691380Y35540324D01*
X8739000Y35349848D01*
X8739000Y35206991D01*
X8691380Y35016515D01*
X8643761Y34921277D01*
X8548523Y34826039D01*
X8405666Y34778420D01*
X8167571Y34778420D01*
X9596142Y34778420D02*
X9596142Y35302229D01*
X9548523Y35397467D01*
X9453285Y35445086D01*
X9262809Y35445086D01*
X9167571Y35397467D01*
X9596142Y34826039D02*
X9500904Y34778420D01*
X9262809Y34778420D01*
X9167571Y34826039D01*
X9119952Y34921277D01*
X9119952Y35016515D01*
X9167571Y35111753D01*
X9262809Y35159372D01*
X9500904Y35159372D01*
X9596142Y35206991D01*
X10072333Y35445086D02*
X10072333Y34778420D01*
X10072333Y35349848D02*
X10119952Y35397467D01*
X10215190Y35445086D01*
X10358047Y35445086D01*
X10453285Y35397467D01*
X10500904Y35302229D01*
X10500904Y34778420D01*
X11405666Y34778420D02*
X11405666Y35778420D01*
X11405666Y34826039D02*
X11310428Y34778420D01*
X11119952Y34778420D01*
X11024714Y34826039D01*
X10977095Y34873658D01*
X10929476Y34968896D01*
X10929476Y35254610D01*
X10977095Y35349848D01*
X11024714Y35397467D01*
X11119952Y35445086D01*
X11310428Y35445086D01*
X11405666Y35397467D01*
X12310428Y34778420D02*
X12310428Y35302229D01*
X12262809Y35397467D01*
X12167571Y35445086D01*
X11977095Y35445086D01*
X11881857Y35397467D01*
X12310428Y34826039D02*
X12215190Y34778420D01*
X11977095Y34778420D01*
X11881857Y34826039D01*
X11834238Y34921277D01*
X11834238Y35016515D01*
X11881857Y35111753D01*
X11977095Y35159372D01*
X12215190Y35159372D01*
X12310428Y35206991D01*
X12786619Y35445086D02*
X12786619Y34778420D01*
X12786619Y35349848D02*
X12834238Y35397467D01*
X12929476Y35445086D01*
X13072333Y35445086D01*
X13167571Y35397467D01*
X13215190Y35302229D01*
X13215190Y34778420D01*
D11*
%TO.C,U1*%
X12585700Y12471400D02*
X17335500Y12471400D01*
X17335500Y12471400D02*
X17335500Y12697460D01*
X17335500Y22529800D02*
X12585700Y22529800D01*
X12585700Y22529800D02*
X12585700Y22303740D01*
X12585700Y12697460D02*
X12585700Y12471400D01*
X17335500Y22303740D02*
X17335500Y22529800D01*
D12*
G36*
X10795000Y16040100D02*
G01*
X10795000Y15659100D01*
X11049000Y15659100D01*
X11049000Y16040100D01*
X10795000Y16040100D01*
G37*
X10795000Y16040100D02*
X10795000Y15659100D01*
X11049000Y15659100D01*
X11049000Y16040100D01*
X10795000Y16040100D01*
G36*
X19126200Y16700500D02*
G01*
X19126200Y16319500D01*
X18872200Y16319500D01*
X18872200Y16700500D01*
X19126200Y16700500D01*
G37*
X19126200Y16700500D02*
X19126200Y16319500D01*
X18872200Y16319500D01*
X18872200Y16700500D01*
X19126200Y16700500D01*
D11*
%TO.C,C6*%
X18266000Y4311400D02*
X18266000Y4811400D01*
X18516000Y4561400D02*
X18016000Y4561400D01*
X17776000Y7316963D02*
X16711563Y8381400D01*
X17776000Y4925837D02*
X16711563Y3861400D01*
X17776000Y4925837D02*
X17776000Y5061400D01*
X17776000Y7316963D02*
X17776000Y7181400D01*
X16711563Y8381400D02*
X13256000Y8381400D01*
X16711563Y3861400D02*
X13256000Y3861400D01*
X13256000Y3861400D02*
X13256000Y5061400D01*
X13256000Y8381400D02*
X13256000Y7181400D01*
%TO.C,Y1*%
X21325600Y20800600D02*
X21325600Y14400600D01*
X26375600Y20800600D02*
X26375600Y14400600D01*
X21325600Y14400600D02*
G75*
G03*
X26375600Y14400600I2525000J0D01*
G01*
X21325600Y20800600D02*
G75*
G02*
X26375600Y20800600I2525000J0D01*
G01*
%TO.C,TP2*%
X23276600Y25247600D02*
G75*
G03*
X23276600Y25247600I-950000J0D01*
G01*
%TO.C,TP1*%
X19466600Y25247600D02*
G75*
G03*
X19466600Y25247600I-950000J0D01*
G01*
%TO.C,R5*%
X18248100Y28954824D02*
X18248100Y28445376D01*
X19293100Y28954824D02*
X19293100Y28445376D01*
%TO.C,R4*%
X20153100Y28954824D02*
X20153100Y28445376D01*
X21198100Y28954824D02*
X21198100Y28445376D01*
%TO.C,R3*%
X24408224Y9535900D02*
X23898776Y9535900D01*
X24408224Y10580900D02*
X23898776Y10580900D01*
%TO.C,R2*%
X23103100Y28398376D02*
X23103100Y28907824D01*
X22058100Y28398376D02*
X22058100Y28907824D01*
%TO.C,R1*%
X16343100Y28907824D02*
X16343100Y28398376D01*
X17388100Y28907824D02*
X17388100Y28398376D01*
D10*
%TO.C,J3*%
X18240600Y33642600D02*
X17240600Y33642600D01*
X21840600Y33642600D02*
X22840600Y33642600D01*
X21840600Y33217600D02*
X21840600Y33642600D01*
X21115600Y33217600D02*
X21840600Y33217600D01*
X15890600Y36792600D02*
X15890600Y35392600D01*
X15890600Y39342600D02*
X15890600Y39192600D01*
X16190600Y39342600D02*
X15890600Y39342600D01*
X16190600Y39792600D02*
X16190600Y39342600D01*
X23890600Y39342600D02*
X23890600Y39792600D01*
X24190600Y39342600D02*
X23890600Y39342600D01*
X24190600Y39192600D02*
X24190600Y39342600D01*
X24190600Y35392600D02*
X24190600Y36792600D01*
D11*
%TO.C,J2*%
X1946600Y23148600D02*
X3276600Y23148600D01*
X1946600Y21818600D02*
X1946600Y23148600D01*
X1946600Y20548600D02*
X4606600Y20548600D01*
X4606600Y20548600D02*
X4606600Y2708600D01*
X1946600Y20548600D02*
X1946600Y2708600D01*
X1946600Y2708600D02*
X4606600Y2708600D01*
%TO.C,J1*%
X35144400Y2708600D02*
X37804400Y2708600D01*
X35144400Y20548600D02*
X35144400Y2708600D01*
X37804400Y20548600D02*
X37804400Y2708600D01*
X35144400Y20548600D02*
X37804400Y20548600D01*
X35144400Y21818600D02*
X35144400Y23148600D01*
X35144400Y23148600D02*
X36474400Y23148600D01*
%TO.C,D2*%
X23750600Y30322600D02*
X23750600Y27862600D01*
X25220600Y30322600D02*
X23750600Y30322600D01*
X25220600Y27862600D02*
X25220600Y30322600D01*
%TO.C,D1*%
X15695600Y27002600D02*
X15695600Y29462600D01*
X14225600Y27002600D02*
X15695600Y27002600D01*
X14225600Y29462600D02*
X14225600Y27002600D01*
%TO.C,C5*%
X25632000Y4311400D02*
X25632000Y4811400D01*
X25882000Y4561400D02*
X25382000Y4561400D01*
X25142000Y7316963D02*
X24077563Y8381400D01*
X25142000Y4925837D02*
X24077563Y3861400D01*
X25142000Y4925837D02*
X25142000Y5061400D01*
X25142000Y7316963D02*
X25142000Y7181400D01*
X24077563Y8381400D02*
X20622000Y8381400D01*
X24077563Y3861400D02*
X20622000Y3861400D01*
X20622000Y3861400D02*
X20622000Y5061400D01*
X20622000Y8381400D02*
X20622000Y7181400D01*
%TO.C,C4*%
X16337233Y10568400D02*
X16629767Y10568400D01*
X16337233Y9548400D02*
X16629767Y9548400D01*
%TO.C,C3*%
X27150600Y15969367D02*
X27150600Y15676833D01*
X28170600Y15969367D02*
X28170600Y15676833D01*
%TO.C,C2*%
X28170600Y20301833D02*
X28170600Y20594367D01*
X27150600Y20301833D02*
X27150600Y20594367D01*
%TO.C,C1*%
X20173733Y10568400D02*
X20466267Y10568400D01*
X20173733Y9548400D02*
X20466267Y9548400D01*
%TO.C,U1*%
D10*
X14198695Y18048220D02*
X14198695Y17238696D01*
X14246314Y17143458D01*
X14293933Y17095839D01*
X14389171Y17048220D01*
X14579647Y17048220D01*
X14674885Y17095839D01*
X14722504Y17143458D01*
X14770123Y17238696D01*
X14770123Y18048220D01*
X15770123Y17048220D02*
X15198695Y17048220D01*
X15484409Y17048220D02*
X15484409Y18048220D01*
X15389171Y17905362D01*
X15293933Y17810124D01*
X15198695Y17762505D01*
X8785980Y11460220D02*
X8785980Y12460220D01*
X9166933Y12460220D01*
X9262171Y12412600D01*
X9309790Y12364981D01*
X9357409Y12269743D01*
X9357409Y12126886D01*
X9309790Y12031648D01*
X9262171Y11984029D01*
X9166933Y11936410D01*
X8785980Y11936410D01*
X9785980Y11460220D02*
X9785980Y12460220D01*
X10024076Y12460220D01*
X10166933Y12412600D01*
X10262171Y12317362D01*
X10309790Y12222124D01*
X10357409Y12031648D01*
X10357409Y11888791D01*
X10309790Y11698315D01*
X10262171Y11603077D01*
X10166933Y11507839D01*
X10024076Y11460220D01*
X9785980Y11460220D01*
X10785980Y11460220D02*
X10785980Y12460220D01*
X11262171Y12460220D02*
X11262171Y11650696D01*
X11309790Y11555458D01*
X11357409Y11507839D01*
X11452647Y11460220D01*
X11643123Y11460220D01*
X11738361Y11507839D01*
X11785980Y11555458D01*
X11833600Y11650696D01*
X11833600Y12460220D01*
X12262171Y11507839D02*
X12405028Y11460220D01*
X12643123Y11460220D01*
X12738361Y11507839D01*
X12785980Y11555458D01*
X12833600Y11650696D01*
X12833600Y11745934D01*
X12785980Y11841172D01*
X12738361Y11888791D01*
X12643123Y11936410D01*
X12452647Y11984029D01*
X12357409Y12031648D01*
X12309790Y12079267D01*
X12262171Y12174505D01*
X12262171Y12269743D01*
X12309790Y12364981D01*
X12357409Y12412600D01*
X12452647Y12460220D01*
X12690742Y12460220D01*
X12833600Y12412600D01*
X13595504Y11984029D02*
X13738361Y11936410D01*
X13785980Y11888791D01*
X13833600Y11793553D01*
X13833600Y11650696D01*
X13785980Y11555458D01*
X13738361Y11507839D01*
X13643123Y11460220D01*
X13262171Y11460220D01*
X13262171Y12460220D01*
X13595504Y12460220D01*
X13690742Y12412600D01*
X13738361Y12364981D01*
X13785980Y12269743D01*
X13785980Y12174505D01*
X13738361Y12079267D01*
X13690742Y12031648D01*
X13595504Y11984029D01*
X13262171Y11984029D01*
X14262171Y11460220D02*
X14262171Y12460220D01*
X14500266Y12460220D01*
X14643123Y12412600D01*
X14738361Y12317362D01*
X14785980Y12222124D01*
X14833600Y12031648D01*
X14833600Y11888791D01*
X14785980Y11698315D01*
X14738361Y11603077D01*
X14643123Y11507839D01*
X14500266Y11460220D01*
X14262171Y11460220D01*
X15785980Y11460220D02*
X15214552Y11460220D01*
X15500266Y11460220D02*
X15500266Y12460220D01*
X15405028Y12317362D01*
X15309790Y12222124D01*
X15214552Y12174505D01*
X16166933Y12364981D02*
X16214552Y12412600D01*
X16309790Y12460220D01*
X16547885Y12460220D01*
X16643123Y12412600D01*
X16690742Y12364981D01*
X16738361Y12269743D01*
X16738361Y12174505D01*
X16690742Y12031648D01*
X16119314Y11460220D01*
X16738361Y11460220D01*
X17166933Y11460220D02*
X17166933Y12460220D01*
X17547885Y12460220D01*
X17643123Y12412600D01*
X17690742Y12364981D01*
X17738361Y12269743D01*
X17738361Y12126886D01*
X17690742Y12031648D01*
X17643123Y11984029D01*
X17547885Y11936410D01*
X17166933Y11936410D01*
X18071695Y12460220D02*
X18309790Y11460220D01*
X18500266Y12174505D01*
X18690742Y11460220D01*
X18928838Y12460220D01*
X19309790Y11460220D02*
X19309790Y12460220D01*
X19547885Y12460220D01*
X19690742Y12412600D01*
X19785980Y12317362D01*
X19833600Y12222124D01*
X19881219Y12031648D01*
X19881219Y11888791D01*
X19833600Y11698315D01*
X19785980Y11603077D01*
X19690742Y11507839D01*
X19547885Y11460220D01*
X19309790Y11460220D01*
X20309790Y11460220D02*
X20309790Y12460220D01*
X20309790Y11984029D02*
X20881219Y11984029D01*
X20881219Y11460220D02*
X20881219Y12460220D01*
%TO.C,C6*%
X15349333Y2564258D02*
X15301714Y2516639D01*
X15158857Y2469020D01*
X15063619Y2469020D01*
X14920761Y2516639D01*
X14825523Y2611877D01*
X14777904Y2707115D01*
X14730285Y2897591D01*
X14730285Y3040448D01*
X14777904Y3230924D01*
X14825523Y3326162D01*
X14920761Y3421400D01*
X15063619Y3469020D01*
X15158857Y3469020D01*
X15301714Y3421400D01*
X15349333Y3373781D01*
X16206476Y3469020D02*
X16016000Y3469020D01*
X15920761Y3421400D01*
X15873142Y3373781D01*
X15777904Y3230924D01*
X15730285Y3040448D01*
X15730285Y2659496D01*
X15777904Y2564258D01*
X15825523Y2516639D01*
X15920761Y2469020D01*
X16111238Y2469020D01*
X16206476Y2516639D01*
X16254095Y2564258D01*
X16301714Y2659496D01*
X16301714Y2897591D01*
X16254095Y2992829D01*
X16206476Y3040448D01*
X16111238Y3088067D01*
X15920761Y3088067D01*
X15825523Y3040448D01*
X15777904Y2992829D01*
X15730285Y2897591D01*
%TO.C,Y1*%
X23826790Y20834410D02*
X24302980Y20834410D01*
X23302980Y20501077D02*
X23826790Y20834410D01*
X23302980Y21167743D01*
X24302980Y22024886D02*
X24302980Y21453458D01*
X24302980Y21739172D02*
X23302980Y21739172D01*
X23445838Y21643934D01*
X23541076Y21548696D01*
X23588695Y21453458D01*
%TO.C,TP2*%
X23731695Y25668220D02*
X24303123Y25668220D01*
X24017409Y24668220D02*
X24017409Y25668220D01*
X24636457Y24668220D02*
X24636457Y25668220D01*
X25017409Y25668220D01*
X25112647Y25620600D01*
X25160266Y25572981D01*
X25207885Y25477743D01*
X25207885Y25334886D01*
X25160266Y25239648D01*
X25112647Y25192029D01*
X25017409Y25144410D01*
X24636457Y25144410D01*
X25588838Y25572981D02*
X25636457Y25620600D01*
X25731695Y25668220D01*
X25969790Y25668220D01*
X26065028Y25620600D01*
X26112647Y25572981D01*
X26160266Y25477743D01*
X26160266Y25382505D01*
X26112647Y25239648D01*
X25541219Y24668220D01*
X26160266Y24668220D01*
%TO.C,TP1*%
X14714695Y25795220D02*
X15286123Y25795220D01*
X15000409Y24795220D02*
X15000409Y25795220D01*
X15619457Y24795220D02*
X15619457Y25795220D01*
X16000409Y25795220D01*
X16095647Y25747600D01*
X16143266Y25699981D01*
X16190885Y25604743D01*
X16190885Y25461886D01*
X16143266Y25366648D01*
X16095647Y25319029D01*
X16000409Y25271410D01*
X15619457Y25271410D01*
X17143266Y24795220D02*
X16571838Y24795220D01*
X16857552Y24795220D02*
X16857552Y25795220D01*
X16762314Y25652362D01*
X16667076Y25557124D01*
X16571838Y25509505D01*
%TO.C,R5*%
X19222980Y31176934D02*
X18746790Y30843600D01*
X19222980Y30605505D02*
X18222980Y30605505D01*
X18222980Y30986458D01*
X18270600Y31081696D01*
X18318219Y31129315D01*
X18413457Y31176934D01*
X18556314Y31176934D01*
X18651552Y31129315D01*
X18699171Y31081696D01*
X18746790Y30986458D01*
X18746790Y30605505D01*
X18222980Y32081696D02*
X18222980Y31605505D01*
X18699171Y31557886D01*
X18651552Y31605505D01*
X18603933Y31700743D01*
X18603933Y31938839D01*
X18651552Y32034077D01*
X18699171Y32081696D01*
X18794409Y32129315D01*
X19032504Y32129315D01*
X19127742Y32081696D01*
X19175361Y32034077D01*
X19222980Y31938839D01*
X19222980Y31700743D01*
X19175361Y31605505D01*
X19127742Y31557886D01*
%TO.C,R4*%
X21127980Y31200434D02*
X20651790Y30867100D01*
X21127980Y30629005D02*
X20127980Y30629005D01*
X20127980Y31009958D01*
X20175600Y31105196D01*
X20223219Y31152815D01*
X20318457Y31200434D01*
X20461314Y31200434D01*
X20556552Y31152815D01*
X20604171Y31105196D01*
X20651790Y31009958D01*
X20651790Y30629005D01*
X20461314Y32057577D02*
X21127980Y32057577D01*
X20080361Y31819481D02*
X20794647Y31581386D01*
X20794647Y32200434D01*
%TO.C,R3*%
X26677333Y9606020D02*
X26344000Y10082210D01*
X26105904Y9606020D02*
X26105904Y10606020D01*
X26486857Y10606020D01*
X26582095Y10558400D01*
X26629714Y10510781D01*
X26677333Y10415543D01*
X26677333Y10272686D01*
X26629714Y10177448D01*
X26582095Y10129829D01*
X26486857Y10082210D01*
X26105904Y10082210D01*
X27010666Y10606020D02*
X27629714Y10606020D01*
X27296380Y10225067D01*
X27439238Y10225067D01*
X27534476Y10177448D01*
X27582095Y10129829D01*
X27629714Y10034591D01*
X27629714Y9796496D01*
X27582095Y9701258D01*
X27534476Y9653639D01*
X27439238Y9606020D01*
X27153523Y9606020D01*
X27058285Y9653639D01*
X27010666Y9701258D01*
%TO.C,R2*%
X23032980Y31176934D02*
X22556790Y30843600D01*
X23032980Y30605505D02*
X22032980Y30605505D01*
X22032980Y30986458D01*
X22080600Y31081696D01*
X22128219Y31129315D01*
X22223457Y31176934D01*
X22366314Y31176934D01*
X22461552Y31129315D01*
X22509171Y31081696D01*
X22556790Y30986458D01*
X22556790Y30605505D01*
X22128219Y31557886D02*
X22080600Y31605505D01*
X22032980Y31700743D01*
X22032980Y31938839D01*
X22080600Y32034077D01*
X22128219Y32081696D01*
X22223457Y32129315D01*
X22318695Y32129315D01*
X22461552Y32081696D01*
X23032980Y31510267D01*
X23032980Y32129315D01*
%TO.C,R1*%
X17317980Y31303934D02*
X16841790Y30970600D01*
X17317980Y30732505D02*
X16317980Y30732505D01*
X16317980Y31113458D01*
X16365600Y31208696D01*
X16413219Y31256315D01*
X16508457Y31303934D01*
X16651314Y31303934D01*
X16746552Y31256315D01*
X16794171Y31208696D01*
X16841790Y31113458D01*
X16841790Y30732505D01*
X17317980Y32256315D02*
X17317980Y31684886D01*
X17317980Y31970600D02*
X16317980Y31970600D01*
X16460838Y31875362D01*
X16556076Y31780124D01*
X16603695Y31684886D01*
%TO.C,J3*%
X25930266Y36590220D02*
X25930266Y35875934D01*
X25882647Y35733077D01*
X25787409Y35637839D01*
X25644552Y35590220D01*
X25549314Y35590220D01*
X26311219Y36590220D02*
X26930266Y36590220D01*
X26596933Y36209267D01*
X26739790Y36209267D01*
X26835028Y36161648D01*
X26882647Y36114029D01*
X26930266Y36018791D01*
X26930266Y35780696D01*
X26882647Y35685458D01*
X26835028Y35637839D01*
X26739790Y35590220D01*
X26454076Y35590220D01*
X26358838Y35637839D01*
X26311219Y35685458D01*
%TO.C,J2*%
X2943266Y24696220D02*
X2943266Y23981934D01*
X2895647Y23839077D01*
X2800409Y23743839D01*
X2657552Y23696220D01*
X2562314Y23696220D01*
X3371838Y24600981D02*
X3419457Y24648600D01*
X3514695Y24696220D01*
X3752790Y24696220D01*
X3848028Y24648600D01*
X3895647Y24600981D01*
X3943266Y24505743D01*
X3943266Y24410505D01*
X3895647Y24267648D01*
X3324219Y23696220D01*
X3943266Y23696220D01*
%TO.C,J1*%
X36141066Y24696220D02*
X36141066Y23981934D01*
X36093447Y23839077D01*
X35998209Y23743839D01*
X35855352Y23696220D01*
X35760114Y23696220D01*
X37141066Y23696220D02*
X36569638Y23696220D01*
X36855352Y23696220D02*
X36855352Y24696220D01*
X36760114Y24553362D01*
X36664876Y24458124D01*
X36569638Y24410505D01*
%TO.C,D2*%
X24963380Y30577505D02*
X23963380Y30577505D01*
X23963380Y30815600D01*
X24011000Y30958458D01*
X24106238Y31053696D01*
X24201476Y31101315D01*
X24391952Y31148934D01*
X24534809Y31148934D01*
X24725285Y31101315D01*
X24820523Y31053696D01*
X24915761Y30958458D01*
X24963380Y30815600D01*
X24963380Y30577505D01*
X24058619Y31529886D02*
X24011000Y31577505D01*
X23963380Y31672743D01*
X23963380Y31910839D01*
X24011000Y32006077D01*
X24058619Y32053696D01*
X24153857Y32101315D01*
X24249095Y32101315D01*
X24391952Y32053696D01*
X24963380Y31482267D01*
X24963380Y32101315D01*
%TO.C,D1*%
X15412980Y30605505D02*
X14412980Y30605505D01*
X14412980Y30843600D01*
X14460600Y30986458D01*
X14555838Y31081696D01*
X14651076Y31129315D01*
X14841552Y31176934D01*
X14984409Y31176934D01*
X15174885Y31129315D01*
X15270123Y31081696D01*
X15365361Y30986458D01*
X15412980Y30843600D01*
X15412980Y30605505D01*
X15412980Y32129315D02*
X15412980Y31557886D01*
X15412980Y31843600D02*
X14412980Y31843600D01*
X14555838Y31748362D01*
X14651076Y31653124D01*
X14698695Y31557886D01*
%TO.C,C5*%
X22715333Y2564258D02*
X22667714Y2516639D01*
X22524857Y2469020D01*
X22429619Y2469020D01*
X22286761Y2516639D01*
X22191523Y2611877D01*
X22143904Y2707115D01*
X22096285Y2897591D01*
X22096285Y3040448D01*
X22143904Y3230924D01*
X22191523Y3326162D01*
X22286761Y3421400D01*
X22429619Y3469020D01*
X22524857Y3469020D01*
X22667714Y3421400D01*
X22715333Y3373781D01*
X23620095Y3469020D02*
X23143904Y3469020D01*
X23096285Y2992829D01*
X23143904Y3040448D01*
X23239142Y3088067D01*
X23477238Y3088067D01*
X23572476Y3040448D01*
X23620095Y2992829D01*
X23667714Y2897591D01*
X23667714Y2659496D01*
X23620095Y2564258D01*
X23572476Y2516639D01*
X23477238Y2469020D01*
X23239142Y2469020D01*
X23143904Y2516639D01*
X23096285Y2564258D01*
%TO.C,C4*%
X13422333Y9701258D02*
X13374714Y9653639D01*
X13231857Y9606020D01*
X13136619Y9606020D01*
X12993761Y9653639D01*
X12898523Y9748877D01*
X12850904Y9844115D01*
X12803285Y10034591D01*
X12803285Y10177448D01*
X12850904Y10367924D01*
X12898523Y10463162D01*
X12993761Y10558400D01*
X13136619Y10606020D01*
X13231857Y10606020D01*
X13374714Y10558400D01*
X13422333Y10510781D01*
X14279476Y10272686D02*
X14279476Y9606020D01*
X14041380Y10653639D02*
X13803285Y9939353D01*
X14422333Y9939353D01*
%TO.C,C3*%
X29447742Y15656434D02*
X29495361Y15608815D01*
X29542980Y15465958D01*
X29542980Y15370720D01*
X29495361Y15227862D01*
X29400123Y15132624D01*
X29304885Y15085005D01*
X29114409Y15037386D01*
X28971552Y15037386D01*
X28781076Y15085005D01*
X28685838Y15132624D01*
X28590600Y15227862D01*
X28542980Y15370720D01*
X28542980Y15465958D01*
X28590600Y15608815D01*
X28638219Y15656434D01*
X28542980Y15989767D02*
X28542980Y16608815D01*
X28923933Y16275481D01*
X28923933Y16418339D01*
X28971552Y16513577D01*
X29019171Y16561196D01*
X29114409Y16608815D01*
X29352504Y16608815D01*
X29447742Y16561196D01*
X29495361Y16513577D01*
X29542980Y16418339D01*
X29542980Y16132624D01*
X29495361Y16037386D01*
X29447742Y15989767D01*
%TO.C,C2*%
X29287742Y20281434D02*
X29335361Y20233815D01*
X29382980Y20090958D01*
X29382980Y19995720D01*
X29335361Y19852862D01*
X29240123Y19757624D01*
X29144885Y19710005D01*
X28954409Y19662386D01*
X28811552Y19662386D01*
X28621076Y19710005D01*
X28525838Y19757624D01*
X28430600Y19852862D01*
X28382980Y19995720D01*
X28382980Y20090958D01*
X28430600Y20233815D01*
X28478219Y20281434D01*
X28478219Y20662386D02*
X28430600Y20710005D01*
X28382980Y20805243D01*
X28382980Y21043339D01*
X28430600Y21138577D01*
X28478219Y21186196D01*
X28573457Y21233815D01*
X28668695Y21233815D01*
X28811552Y21186196D01*
X29382980Y20614767D01*
X29382980Y21233815D01*
%TO.C,C1*%
X19264333Y8177258D02*
X19216714Y8129639D01*
X19073857Y8082020D01*
X18978619Y8082020D01*
X18835761Y8129639D01*
X18740523Y8224877D01*
X18692904Y8320115D01*
X18645285Y8510591D01*
X18645285Y8653448D01*
X18692904Y8843924D01*
X18740523Y8939162D01*
X18835761Y9034400D01*
X18978619Y9082020D01*
X19073857Y9082020D01*
X19216714Y9034400D01*
X19264333Y8986781D01*
X20216714Y8082020D02*
X19645285Y8082020D01*
X19931000Y8082020D02*
X19931000Y9082020D01*
X19835761Y8939162D01*
X19740523Y8843924D01*
X19645285Y8796305D01*
%TD*%
M02*
